<?xml version="1.0" encoding="UTF-8"?>
<svg version="1.1" xmlns="http://www.w3.org/2000/svg" width="500" height="500">
<path d="M0 0 C0.93328125 -0.020625 1.8665625 -0.04125 2.828125 -0.0625 C8.21713146 -0.09303261 11.93591264 0.27031238 16.625 3.25 C16.625 3.91 16.625 4.57 16.625 5.25 C15.26181641 5.48783203 15.26181641 5.48783203 13.87109375 5.73046875 C4.46184416 7.4772115 -4.37240961 10.01928317 -13.375 13.25 C-12.46234375 12.99476563 -12.46234375 12.99476563 -11.53125 12.734375 C-5.66232652 11.11179027 0.22326811 9.56071441 6.125 8.0625 C6.81916016 7.88364258 7.51332031 7.70478516 8.22851562 7.52050781 C11.11145307 6.79482238 13.63887797 6.25 16.625 6.25 C17.12 9.22 17.12 9.22 17.625 12.25 C16.82578125 12.35957031 16.0265625 12.46914062 15.203125 12.58203125 C-1.53451768 14.73473829 -1.53451768 14.73473829 -16.375 22.25 C-16.705 23.24 -17.035 24.23 -17.375 25.25 C-15.87547375 25.85534154 -14.37534778 26.4591975 -12.875 27.0625 C-11.96363281 27.42988281 -11.05226562 27.79726562 -10.11328125 28.17578125 C-7.77757487 29.0920712 -5.43278013 29.92969273 -3.0625 30.75 C0.48149069 32.19162333 2.88720762 33.59776363 5.625 36.25 C5.625 36.91 5.625 37.57 5.625 38.25 C6.2025 38.45625 6.78 38.6625 7.375 38.875 C10.70537172 40.91022716 11.89484123 42.72789108 13.625 46.25 C14.39587763 51.43800643 14.30039686 55.75849861 12.125 60.5625 C2.97312351 70.40076722 -9.09023937 75.7194667 -22.4453125 76.609375 C-30.11592663 76.7618723 -36.1065446 76.66476432 -42.25 71.75 C-45.20885672 67.8048577 -44.88646673 62.92326451 -44.375 58.25 C-42.61485541 51.65629774 -40.24496402 43.61497801 -34.125 39.875 C-33.5475 39.66875 -32.97 39.4625 -32.375 39.25 C-31.375 40.25 -31.375 40.25 -31.125 42.8125 C-31.34899688 45.89245714 -31.7343217 47.29147532 -32.9375 50 C-34.94474959 54.83991022 -34.23526379 59.19206353 -33.375 64.25 C-28.66526351 66.01615118 -24.34416636 66.73594831 -19.375 67.25 C-19.375 65.6 -19.375 63.95 -19.375 62.25 C-17.38932292 61.76171875 -15.40364583 61.2734375 -13.41796875 60.78515625 C-11.71816798 60.33989295 -10.04198046 59.80566015 -8.375 59.25 C-7.04323025 55.83880932 -7.04323025 55.83880932 -6.375 52.25 C-6.705 51.59 -7.035 50.93 -7.375 50.25 C-8.365 49.92 -9.355 49.59 -10.375 49.25 C-9.80155063 46.38275314 -9.5135485 45.3885485 -7.375 43.25 C-7.705 42.26 -8.035 41.27 -8.375 40.25 C-9.550625 40.3428125 -9.550625 40.3428125 -10.75 40.4375 C-20.66656384 39.92457428 -28.90082042 35.72417958 -35.875 28.75 C-37.65475757 25.78373738 -38.23102222 23.70546684 -38.375 20.25 C-37.4375 17.375 -37.4375 17.375 -36.375 15.25 C-35.715 15.25 -35.055 15.25 -34.375 15.25 C-34.1275 14.651875 -33.88 14.05375 -33.625 13.4375 C-32.19427475 10.93373081 -30.8058418 9.76927612 -28.375 8.25 C-27.715 8.25 -27.055 8.25 -26.375 8.25 C-26.375 7.59 -26.375 6.93 -26.375 6.25 C-24.4598421 5.43395001 -22.54281166 4.62229368 -20.625 3.8125 C-19.55765625 3.36003906 -18.4903125 2.90757812 -17.390625 2.44140625 C-11.51204243 0.11890925 -6.26862293 0.03434862 0 0 Z M-4.375 44.25 C-3.715 44.91 -3.055 45.57 -2.375 46.25 C-2.375 45.59 -2.375 44.93 -2.375 44.25 C-3.035 44.25 -3.695 44.25 -4.375 44.25 Z M0.625 49.25 C0.625 50.9 0.625 52.55 0.625 54.25 C0.955 54.25 1.285 54.25 1.625 54.25 C1.625 52.6 1.625 50.95 1.625 49.25 C1.295 49.25 0.965 49.25 0.625 49.25 Z " fill="#1644A8" transform="translate(151.375,211.75)"/>
<path d="M0 0 C0.66 0.33 1.32 0.66 2 1 C1.34 2.32 0.68 3.64 0 5 C1.32 5 2.64 5 4 5 C3.67 6.32 3.34 7.64 3 9 C3.66 9 4.32 9 5 9 C5 9.66 5 10.32 5 11 C5.66 11.33 6.32 11.66 7 12 C8.62650602 18.9707401 8.62650602 18.9707401 6.25 22.875 C4 25 4 25 1 27 C0.7497843 30.08365871 0.7497843 30.08365871 1 33 C2.65 33 4.3 33 6 33 C1.96087676 38.10744207 -5.85855703 38.95646791 -12 40 C-20.6462222 40.94426928 -28.85351897 41.11718482 -35.875 35.5 C-38.83385672 31.5548577 -38.51146673 26.67326451 -38 22 C-36.23985541 15.40629774 -33.86996402 7.36497801 -27.75 3.625 C-27.1725 3.41875 -26.595 3.2125 -26 3 C-25 4 -25 4 -24.75 6.5625 C-24.97399688 9.64245714 -25.3593217 11.04147532 -26.5625 13.75 C-28.56974959 18.58991022 -27.86026379 22.94206353 -27 28 C-22.29026351 29.76615118 -17.96916636 30.48594831 -13 31 C-13 29.35 -13 27.7 -13 26 C-11.01432292 25.51171875 -9.02864583 25.0234375 -7.04296875 24.53515625 C-5.34316798 24.08989295 -3.66698046 23.55566015 -2 23 C-0.66823025 19.58880932 -0.66823025 19.58880932 0 16 C-0.495 15.01 -0.495 15.01 -1 14 C-1.99 13.67 -2.98 13.34 -4 13 C-3.42655063 10.13275314 -3.1385485 9.1385485 -1 7 C-1.66 5.68 -2.32 4.36 -3 3 C-2.01 2.01 -1.02 1.02 0 0 Z " fill="#375DA8" transform="translate(145,248)"/>
<path d="M0 0 C0.495 0.33 0.99 0.66 1.5 1 C1.5 2.98 1.5 4.96 1.5 7 C-1.06434164 6.48713167 -3.62781543 5.97324793 -6.1875 5.4375 C-8.43526987 4.93803611 -8.43526987 4.93803611 -10.5 5 C-10.5 5.66 -10.5 6.32 -10.5 7 C-9.63375 6.9175 -8.7675 6.835 -7.875 6.75 C-3.74011993 7.05628741 -1.75357303 8.52108722 1.5 11 C1.68175781 10.45730469 1.86351562 9.91460937 2.05078125 9.35546875 C2.30214844 8.64003906 2.55351562 7.92460937 2.8125 7.1875 C3.05613281 6.47980469 3.29976562 5.77210938 3.55078125 5.04296875 C4.5908242 2.80452239 5.59952848 1.56260992 7.5 0 C12.39558597 -1.63186199 16.74506275 -1.83931781 21.375 0.375 C25.33922635 3.40646721 25.33922635 3.40646721 26.01953125 5.91796875 C26.75299237 11.59984758 26.4763899 15.03935017 23.5 20 C20.12830127 22.98636173 16.98779316 23.52460883 12.49609375 23.36328125 C8.30835479 22.60112915 5.42162635 19.92162635 2.5 17 C1.71625 17.804375 0.9325 18.60875 0.125 19.4375 C-3.12257768 22.60775441 -4.48567464 23.15104381 -8.875 23.1875 C-10.03128906 23.20876953 -10.03128906 23.20876953 -11.2109375 23.23046875 C-13.71834888 22.97801607 -15.33261902 22.25193467 -17.5 21 C-17.5 18.69 -17.5 16.38 -17.5 14 C-16.80132812 14.2165625 -16.10265625 14.433125 -15.3828125 14.65625 C-14.01769531 15.07390625 -14.01769531 15.07390625 -12.625 15.5 C-11.72007812 15.7784375 -10.81515625 16.056875 -9.8828125 16.34375 C-7.59055353 17.08850794 -7.59055353 17.08850794 -5.5 17 C-5.5 16.34 -5.5 15.68 -5.5 15 C-6.11488281 14.90203125 -6.72976562 14.8040625 -7.36328125 14.703125 C-13.8715826 13.49903735 -13.8715826 13.49903735 -16.625 11.3125 C-17.96217562 7.77853587 -17.60707343 5.58170815 -16.5 2 C-11.62203586 -1.68821679 -5.69197609 -2.27679043 0 0 Z M14.5 4 C12.34188612 4.94729537 12.34188612 4.94729537 10.5 7 C10.13066355 9.75372909 10.31663322 12.20365661 10.5 15 C12.82854463 16.19838209 12.82854463 16.19838209 15.5 17 C16.49 16.34 17.48 15.68 18.5 15 C18.83388082 11.99507264 19.06215006 9.89359346 18.5 7 C16.65811388 4.94729537 16.65811388 4.94729537 14.5 4 Z " fill="#5070B4" transform="translate(247.5,222)"/>
<path d="M0 0 C0.93328125 -0.020625 1.8665625 -0.04125 2.828125 -0.0625 C8.21713146 -0.09303261 11.93591264 0.27031238 16.625 3.25 C16.625 3.91 16.625 4.57 16.625 5.25 C15.26181641 5.48783203 15.26181641 5.48783203 13.87109375 5.73046875 C4.46184416 7.4772115 -4.37240961 10.01928317 -13.375 13.25 C-12.46234375 12.99476563 -12.46234375 12.99476563 -11.53125 12.734375 C-5.66232652 11.11179027 0.22326811 9.56071441 6.125 8.0625 C6.81916016 7.88364258 7.51332031 7.70478516 8.22851562 7.52050781 C11.11145307 6.79482238 13.63887797 6.25 16.625 6.25 C17.12 9.22 17.12 9.22 17.625 12.25 C16.82578125 12.35957031 16.0265625 12.46914062 15.203125 12.58203125 C-1.54238677 14.72844789 -1.54238677 14.72844789 -16.375 22.25 C-18.01290024 24.86169724 -18.01290024 24.86169724 -18.375 27.25 C-18.705 27.25 -19.035 27.25 -19.375 27.25 C-19.375 24.94 -19.375 22.63 -19.375 20.25 C-20.365 20.58 -21.355 20.91 -22.375 21.25 C-21.88 16.795 -21.88 16.795 -21.375 12.25 C-20.385 12.25 -19.395 12.25 -18.375 12.25 C-18.045 11.59 -17.715 10.93 -17.375 10.25 C-18.035 9.92 -18.695 9.59 -19.375 9.25 C-21.35830173 10.11649466 -21.35830173 10.11649466 -23.375 11.25 C-26.5714086 12.31546953 -29.03247276 12.32427838 -32.375 12.25 C-31.08534824 10.87437146 -29.74810707 9.54233607 -28.375 8.25 C-27.715 8.25 -27.055 8.25 -26.375 8.25 C-26.375 7.59 -26.375 6.93 -26.375 6.25 C-24.4598421 5.43395001 -22.54281166 4.62229368 -20.625 3.8125 C-19.55765625 3.36003906 -18.4903125 2.90757812 -17.390625 2.44140625 C-11.51204243 0.11890925 -6.26862293 0.03434862 0 0 Z " fill="#1F49A7" transform="translate(151.375,211.75)"/>
<path d="M0 0 C1.27875 -0.061875 2.5575 -0.12375 3.875 -0.1875 C4.95394531 -0.23970703 4.95394531 -0.23970703 6.0546875 -0.29296875 C6.69664062 -0.19628906 7.33859375 -0.09960938 8 0 C9.99097846 2.98646769 10.94124926 5.59687262 12 9 C13.32 6.03 14.64 3.06 16 0 C23.26 0 30.52 0 38 0 C38 1.32 38 2.64 38 4 C37.01 4 36.02 4 35 4 C35 8.29 35 12.58 35 17 C35.99 17 36.98 17 38 17 C38 18.65 38 20.3 38 22 C33.38 22 28.76 22 24 22 C24 20.35 24 18.7 24 17 C25.32 17 26.64 17 28 17 C28 12.71 28 8.42 28 4 C26.35 4 24.7 4 23 4 C20.69 9.94 18.38 15.88 16 22 C13.69 22 11.38 22 9 22 C6.87003887 19.87003887 6.42848834 18.74587642 5.52734375 15.9375 C5.26759766 15.14085937 5.00785156 14.34421875 4.74023438 13.5234375 C4.47533203 12.69070313 4.21042969 11.85796875 3.9375 11 C3.40617082 9.35377147 2.8736732 7.70791946 2.33984375 6.0625 C2.10644287 5.33160156 1.87304199 4.60070312 1.63256836 3.84765625 C1.02485109 1.93854047 1.02485109 1.93854047 0 0 Z " fill="#204AA6" transform="translate(248,257)"/>
<path d="M0 0 C11.22 0 22.44 0 34 0 C34 1.65 34 3.3 34 5 C32.02 5 30.04 5 28 5 C28 10.61 28 16.22 28 22 C25.69 22 23.38 22 21 22 C20.67 16.72 20.34 11.44 20 6 C16.7 5.34 13.4 4.68 10 4 C10 8.29 10 12.58 10 17 C11.32 17 12.64 17 14 17 C14 18.65 14 20.3 14 22 C9.38 22 4.76 22 0 22 C0 20.35 0 18.7 0 17 C0.99 17 1.98 17 3 17 C3 12.71 3 8.42 3 4 C2.01 4 1.02 4 0 4 C0 2.68 0 1.36 0 0 Z " fill="#2C51A1" transform="translate(313,222)"/>
<path d="M0 0 C0.78375 0.04125 1.5675 0.0825 2.375 0.125 C2.375 0.785 2.375 1.445 2.375 2.125 C3.73625 2.2178125 3.73625 2.2178125 5.125 2.3125 C10.17323333 3.57455833 11.60627219 6.97190828 14.375 11.125 C15.06257257 16.21783401 15.00488158 20.73401151 12.875 25.4375 C5.28259754 33.59933265 5.28259754 33.59933265 0.30078125 34.5 C-1.625 34.5 -1.625 34.5 -4.625 34.125 C-4.955 32.145 -5.285 30.165 -5.625 28.125 C-4.449375 27.2278125 -4.449375 27.2278125 -3.25 26.3125 C-0.47925677 24.21414751 -0.47925677 24.21414751 1.375 21.125 C1.82536243 16.17101322 1.51040111 13.91360968 -1.625 10.125 C-1.625 8.805 -1.625 7.485 -1.625 6.125 C-2.945 6.125 -4.265 6.125 -5.625 6.125 C-4.86443086 2.32215429 -4.27658992 0.20364714 0 0 Z " fill="#0C3CA5" transform="translate(150.625,246.875)"/>
<path d="M0 0 C2.64 0 5.28 0 8 0 C9.32 2.31 10.64 4.62 12 7 C13.32 4.69 14.64 2.38 16 0 C18.64 0 21.28 0 24 0 C24 7.26 24 14.52 24 22 C21.69 22 19.38 22 17 22 C16.67 19.36 16.34 16.72 16 14 C15.67 14.99 15.34 15.98 15 17 C12.125 17.1875 12.125 17.1875 9 17 C8.34 16.01 7.68 15.02 7 14 C6.67 16.64 6.34 19.28 6 22 C4.02 22 2.04 22 0 22 C0 14.74 0 7.48 0 0 Z " fill="#1542A6" transform="translate(276,222)"/>
<path d="M0 0 C2.76375 -0.04125 5.5275 -0.0825 8.375 -0.125 C9.67896729 -0.15231201 9.67896729 -0.15231201 11.00927734 -0.18017578 C13.00703478 -0.19473738 15.00467217 -0.09956726 17 0 C19.60704898 2.60704898 19.23905333 4.47338241 19.265625 8.02734375 C19 10 19 10 17 13 C17 13.66 17 14.32 17 15 C17.66 15 18.32 15 19 15 C21.29648649 17.5614657 22 18.47967572 22 22 C14.89006342 22.7230444 14.89006342 22.7230444 12.35546875 20.6640625 C11 19 11 19 9 16 C8.34 17.98 7.68 19.96 7 22 C4.69 22 2.38 22 0 22 C0 14.74 0 7.48 0 0 Z M8 4 C8 5.65 8 7.3 8 9 C9.32 8.67 10.64 8.34 12 8 C12 7.01 12 6.02 12 5 C10.68 4.67 9.36 4.34 8 4 Z " fill="#3A5DAC" transform="translate(228,257)"/>
<path d="M0 0 C0.495 0.33 0.99 0.66 1.5 1 C1.5 2.98 1.5 4.96 1.5 7 C-1.06434164 6.48713167 -3.62781543 5.97324793 -6.1875 5.4375 C-8.43526987 4.93803611 -8.43526987 4.93803611 -10.5 5 C-10.5 5.66 -10.5 6.32 -10.5 7 C-9.63375 6.9175 -8.7675 6.835 -7.875 6.75 C-3.74011993 7.05628741 -1.75357303 8.52108722 1.5 11 C2.16 8.69 2.82 6.38 3.5 4 C4.95009905 8.63401219 4.15212632 12.50076278 2.5 17 C0.28650529 19.65619365 -1.41939484 21.45969742 -4.5 23 C-6.5234375 23.16796875 -6.5234375 23.16796875 -8.875 23.1875 C-10.03128906 23.20876953 -10.03128906 23.20876953 -11.2109375 23.23046875 C-13.71834888 22.97801607 -15.33261902 22.25193467 -17.5 21 C-17.5 18.69 -17.5 16.38 -17.5 14 C-16.80132812 14.2165625 -16.10265625 14.433125 -15.3828125 14.65625 C-14.01769531 15.07390625 -14.01769531 15.07390625 -12.625 15.5 C-11.72007812 15.7784375 -10.81515625 16.056875 -9.8828125 16.34375 C-7.59055353 17.08850794 -7.59055353 17.08850794 -5.5 17 C-5.5 16.34 -5.5 15.68 -5.5 15 C-6.11488281 14.90203125 -6.72976562 14.8040625 -7.36328125 14.703125 C-13.8715826 13.49903735 -13.8715826 13.49903735 -16.625 11.3125 C-17.96217562 7.77853587 -17.60707343 5.58170815 -16.5 2 C-11.62203586 -1.68821679 -5.69197609 -2.27679043 0 0 Z " fill="#0E369B" transform="translate(247.5,222)"/>
<path d="M0 0 C0.495 0.33 0.99 0.66 1.5 1 C1.5 2.98 1.5 4.96 1.5 7 C-1.09028463 6.48194307 -3.67388247 5.96048126 -6.25 5.375 C-6.9925 5.25125 -7.735 5.1275 -8.5 5 C-8.83 5.33 -9.16 5.66 -9.5 6 C-8.88511719 6.17015625 -8.27023438 6.3403125 -7.63671875 6.515625 C-1.12284793 8.46874735 -1.12284793 8.46874735 1.625 10.8125 C2.91324189 14.03310473 2.65485632 15.73922923 1.5 19 C-2.58559812 22.88131821 -5.96217788 23.43048811 -11.3515625 23.3359375 C-13.72246339 22.96521482 -15.42119479 22.1757948 -17.5 21 C-17.5 18.69 -17.5 16.38 -17.5 14 C-16.80132812 14.2165625 -16.10265625 14.433125 -15.3828125 14.65625 C-14.01769531 15.07390625 -14.01769531 15.07390625 -12.625 15.5 C-11.72007812 15.7784375 -10.81515625 16.056875 -9.8828125 16.34375 C-7.59055353 17.08850794 -7.59055353 17.08850794 -5.5 17 C-5.5 16.34 -5.5 15.68 -5.5 15 C-6.11488281 14.90203125 -6.72976562 14.8040625 -7.36328125 14.703125 C-13.8715826 13.49903735 -13.8715826 13.49903735 -16.625 11.3125 C-17.96217562 7.77853587 -17.60707343 5.58170815 -16.5 2 C-11.62203586 -1.68821679 -5.69197609 -2.27679043 0 0 Z " fill="#0937A0" transform="translate(204.5,222)"/>
<path d="M0 0 C0 1.98 0 3.96 0 6 C-0.99 6.495 -0.99 6.495 -2 7 C-2.598125 6.690625 -3.19625 6.38125 -3.8125 6.0625 C-6.38686848 4.81209245 -8.17332853 4.92057287 -11 5 C-10.30132812 5.25394531 -9.60265625 5.50789063 -8.8828125 5.76953125 C-7.97273437 6.11371094 -7.06265625 6.45789063 -6.125 6.8125 C-5.22007812 7.14894531 -4.31515625 7.48539062 -3.3828125 7.83203125 C-1 9 -1 9 1 12 C0.77887672 18.19145178 0.77887672 18.19145178 -1.640625 20.703125 C-4.77140727 22.42401856 -7.07222456 22.33019809 -10.625 22.25 C-11.77226562 22.23453125 -12.91953125 22.2190625 -14.1015625 22.203125 C-17 22 -17 22 -19 21 C-19 18.69 -19 16.38 -19 14 C-13.06 15.485 -13.06 15.485 -7 17 C-7.80685982 14.80917051 -7.80685982 14.80917051 -9.99609375 14.2890625 C-11.61995947 13.84737102 -13.24496514 13.40984877 -14.87109375 12.9765625 C-17 12 -17 12 -18.30078125 10.09375 C-19.29492287 7.116879 -18.78229306 4.99879006 -18 2 C-13.63194757 -2.36805243 -5.60713447 -1.86904482 0 0 Z " fill="#1542A5" transform="translate(206,257)"/>
<path d="M0 0 C0.7734375 -0.00257813 1.546875 -0.00515625 2.34375 -0.0078125 C4.5 0.125 4.5 0.125 7.5 1.125 C7.5 3.435 7.5 5.745 7.5 8.125 C6.778125 7.795 6.05625 7.465 5.3125 7.125 C2.48302573 6.11896471 0.47104534 5.95522598 -2.5 6.125 C-2.5 6.455 -2.5 6.785 -2.5 7.125 C-1.87351562 7.30675781 -1.24703125 7.48851562 -0.6015625 7.67578125 C0.21570313 7.92714844 1.03296875 8.17851562 1.875 8.4375 C2.68710937 8.68113281 3.49921875 8.92476563 4.3359375 9.17578125 C6.5 10.125 6.5 10.125 8.5 13.125 C8.2782481 19.33405321 8.2782481 19.33405321 5.82421875 21.828125 C2.85543179 23.48465823 0.81914024 23.45880769 -2.5625 23.375 C-3.60535156 23.35953125 -4.64820313 23.3440625 -5.72265625 23.328125 C-8.5 23.125 -8.5 23.125 -11.5 22.125 C-11.5 19.815 -11.5 17.505 -11.5 15.125 C-6.625 16 -6.625 16 -5.5 17.125 C-3.17182036 17.49260731 -0.8381615 17.82741581 1.5 18.125 C1.17 17.465 0.84 16.805 0.5 16.125 C-1.81470912 15.39629528 -4.1505947 14.73260482 -6.5 14.125 C-9.5 13.125 -9.5 13.125 -10.75 11.375 C-11.7057139 8.5078583 -11.45081589 6.97744768 -10.5 4.125 C-7.61428604 0.45227314 -4.49182126 -0.01497274 0 0 Z " fill="#133F9E" transform="translate(339.5,255.875)"/>
<path d="M0 0 C5.94 0 11.88 0 18 0 C18 1.65 18 3.3 18 5 C14.7 5 11.4 5 8 5 C8 5.66 8 6.32 8 7 C10.97 7 13.94 7 17 7 C17 8.65 17 10.3 17 12 C14.03 12 11.06 12 8 12 C8 13.65 8 15.3 8 17 C11.3 17 14.6 17 18 17 C18 18.65 18 20.3 18 22 C15.18743719 22.02684312 12.37512759 22.04676188 9.5625 22.0625 C8.76005859 22.07087891 7.95761719 22.07925781 7.13085938 22.08789062 C5.08704779 22.0965143 3.04316098 22.0522815 1 22 C0 21 0 21 -0.11352539 18.95874023 C-0.10828857 18.08419189 -0.10305176 17.20964355 -0.09765625 16.30859375 C-0.09443359 15.36435547 -0.09121094 14.42011719 -0.08789062 13.44726562 C-0.07951172 12.45404297 -0.07113281 11.46082031 -0.0625 10.4375 C-0.05798828 9.44041016 -0.05347656 8.44332031 -0.04882812 7.41601562 C-0.03700023 4.94398513 -0.01906415 2.47198528 0 0 Z " fill="#4E6FB1" transform="translate(309,257)"/>
<path d="M0 0 C2.05078125 0.03255208 4.1015625 0.06510417 6.15234375 0.09765625 C7.11511634 2.45009117 8.07262873 4.80445244 9.02734375 7.16015625 C9.29675781 7.81693359 9.56617188 8.47371094 9.84375 9.15039062 C11.56623898 13.41460116 12.96217356 17.65473938 14.15234375 22.09765625 C11.51234375 22.09765625 8.87234375 22.09765625 6.15234375 22.09765625 C5.82234375 20.44765625 5.49234375 18.79765625 5.15234375 17.09765625 C3.17234375 17.09765625 1.19234375 17.09765625 -0.84765625 17.09765625 C-1.83765625 19.57265625 -1.83765625 19.57265625 -2.84765625 22.09765625 C-5.15765625 22.09765625 -7.46765625 22.09765625 -9.84765625 22.09765625 C-3.57444004 0.18892389 -3.57444004 0.18892389 0 0 Z M1.15234375 9.09765625 C1.15234375 10.41765625 1.15234375 11.73765625 1.15234375 13.09765625 C1.81234375 13.09765625 2.47234375 13.09765625 3.15234375 13.09765625 C2.49234375 11.77765625 1.83234375 10.45765625 1.15234375 9.09765625 Z " fill="#1844A3" transform="translate(215.84765625,221.90234375)"/>
<path d="M0 0 C5.61 0 11.22 0 17 0 C17 1.65 17 3.3 17 5 C13.7 5 10.4 5 7 5 C7 5.66 7 6.32 7 7 C9.97 7 12.94 7 16 7 C16 8.65 16 10.3 16 12 C13.03 12 10.06 12 7 12 C7 13.65 7 15.3 7 17 C10.3 17 13.6 17 17 17 C17 18.65 17 20.3 17 22 C14.35409986 22.02684679 11.70846904 22.04676357 9.0625 22.0625 C8.30775391 22.07087891 7.55300781 22.07925781 6.77539062 22.08789062 C4.85005687 22.09652441 2.92464419 22.05224333 1 22 C0 21 0 21 -0.11352539 18.95874023 C-0.10828857 18.08419189 -0.10305176 17.20964355 -0.09765625 16.30859375 C-0.09443359 15.36435547 -0.09121094 14.42011719 -0.08789062 13.44726562 C-0.07951172 12.45404297 -0.07113281 11.46082031 -0.0625 10.4375 C-0.05798828 9.44041016 -0.05347656 8.44332031 -0.04882812 7.41601562 C-0.03700023 4.94398513 -0.01906415 2.47198528 0 0 Z " fill="#0E399B" transform="translate(208,257)"/>
<path d="M0 0 C0 2.31 0 4.62 0 7 C-2.76276177 6.47731534 -5.3260876 5.89130413 -8 5 C-10.16715557 5.87483915 -10.16715557 5.87483915 -12 7 C-12.16677282 10.41656024 -12.16677282 10.41656024 -12 14 C-11.34 14.66 -10.68 15.32 -10 16 C-7.60611077 15.72197162 -7.60611077 15.72197162 -5 15 C-4.071875 14.814375 -3.14375 14.62875 -2.1875 14.4375 C-1.465625 14.293125 -0.74375 14.14875 0 14 C0 16.31 0 18.62 0 21 C-4.61812875 22.53937625 -9.17725495 22.52175897 -14 22 C-17.61691275 19.90219061 -18.68291409 18.95125774 -20 15 C-20.43283582 6.05472637 -20.43283582 6.05472637 -18 2 C-12.93152926 -2.45411065 -6.14635071 -1.7282256 0 0 Z " fill="#3154A6" transform="translate(308,257)"/>
<path d="M0 0 C0.66 0.33 1.32 0.66 2 1 C1.34 2.32 0.68 3.64 0 5 C1.32 5 2.64 5 4 5 C3.67 6.32 3.34 7.64 3 9 C3.66 9 4.32 9 5 9 C5 9.66 5 10.32 5 11 C5.66 11.33 6.32 11.66 7 12 C8.62650602 18.9707401 8.62650602 18.9707401 6.25 22.875 C4 25 4 25 1 27 C0.7497843 30.08365871 0.7497843 30.08365871 1 33 C2.65 33 4.3 33 6 33 C5.01 33.99 4.02 34.98 3 36 C-0.36938898 34.87687034 -1.53174093 33.46825907 -4 31 C-6.21072977 30.75746187 -6.21072977 30.75746187 -8.625 30.875 C-9.85089844 30.90207031 -9.85089844 30.90207031 -11.1015625 30.9296875 C-11.72804687 30.95289063 -12.35453125 30.97609375 -13 31 C-13 29.35 -13 27.7 -13 26 C-11.01432292 25.51171875 -9.02864583 25.0234375 -7.04296875 24.53515625 C-5.34316798 24.08989295 -3.66698046 23.55566015 -2 23 C-0.66823025 19.58880932 -0.66823025 19.58880932 0 16 C-0.33 15.34 -0.66 14.68 -1 14 C-1.99 13.67 -2.98 13.34 -4 13 C-3.42655063 10.13275314 -3.1385485 9.1385485 -1 7 C-1.66 5.68 -2.32 4.36 -3 3 C-2.01 2.01 -1.02 1.02 0 0 Z " fill="#5373BF" transform="translate(145,248)"/>
<path d="M0 0 C6.27 0 12.54 0 19 0 C19 1.65 19 3.3 19 5 C17.02 5 15.04 5 13 5 C13 10.61 13 16.22 13 22 C10.69 22 8.38 22 6 22 C5.67 16.72 5.34 11.44 5 6 C3.35 5.67 1.7 5.34 0 5 C0 3.35 0 1.7 0 0 Z " fill="#1C45A1" transform="translate(328,222)"/>
<path d="M0 0 C4.29 0 8.58 0 13 0 C13 1.32 13 2.64 13 4 C12.01 4 11.02 4 10 4 C10 8.29 10 12.58 10 17 C10.99 17 11.98 17 13 17 C13 18.65 13 20.3 13 22 C8.38 22 3.76 22 -1 22 C-1 20.35 -1 18.7 -1 17 C0.32 17 1.64 17 3 17 C3 12.71 3 8.42 3 4 C2.01 4 1.02 4 0 4 C0 2.68 0 1.36 0 0 Z " fill="#103995" transform="translate(273,257)"/>
<path d="M0 0 C0.495 2.97 0.495 2.97 1 6 C-0.19882813 6.16435547 -0.19882813 6.16435547 -1.421875 6.33203125 C-18.16738677 8.47844789 -18.16738677 8.47844789 -33 16 C-34.63790024 18.61169724 -34.63790024 18.61169724 -35 21 C-35.33 21 -35.66 21 -36 21 C-36 18.69 -36 16.38 -36 14 C-36.99 14.33 -37.98 14.66 -39 15 C-39 13 -39 13 -37.6875 11.5 C-30.62795475 5.22484867 -20.03624896 4.26591483 -11.07006836 2.35791016 C-0.07235308 0 -0.07235308 0 0 0 Z " fill="#2B509D" transform="translate(168,218)"/>
<path d="M0 0 C2 3 2 3 2 5 C3.85625 5.433125 3.85625 5.433125 5.75 5.875 C8.72448742 6.61334794 11.333856 7.44474933 14 9 C13.67 10.98 13.34 12.96 13 15 C13.99 15 14.98 15 16 15 C16 11.7 16 8.4 16 5 C13.36 4.67 10.72 4.34 8 4 C8 3.01 8 2.02 8 1 C16.11589085 3.2459069 16.11589085 3.2459069 19.125 5.8125 C20.41324189 9.03310473 20.15485632 10.73922923 19 14 C14.91440188 17.88131821 11.53782212 18.43048811 6.1484375 18.3359375 C3.77753661 17.96521482 2.07880521 17.1757948 0 16 C0 13.69 0 11.38 0 9 C0.69867188 9.2165625 1.39734375 9.433125 2.1171875 9.65625 C3.02726563 9.9346875 3.93734375 10.213125 4.875 10.5 C5.77992188 10.7784375 6.68484375 11.056875 7.6171875 11.34375 C9.90944647 12.08850794 9.90944647 12.08850794 12 12 C12 11.34 12 10.68 12 10 C11.38511719 9.90203125 10.77023438 9.8040625 10.13671875 9.703125 C3.52863436 8.48057669 3.52863436 8.48057669 0.9375 6.125 C0 4 0 4 0 0 Z " fill="#3355A5" transform="translate(187,227)"/>
<path d="M0 0 C0.66 0.33 1.32 0.66 2 1 C2 5.29 2 9.58 2 14 C3.98 14.99 5.96 15.98 8 17 C8 18.32 8 19.64 8 21 C2.61577922 21.27377394 -0.54453408 21.37535297 -5 18 C-6 17 -6 17 -6.1328125 14.85546875 C-6.13023437 13.97503906 -6.12765625 13.09460938 -6.125 12.1875 C-6.12757813 11.31480469 -6.13015625 10.44210938 -6.1328125 9.54296875 C-6.01114834 7.21345785 -5.65514709 5.23061985 -5 3 C-3.35 2.67 -1.7 2.34 0 2 C0 1.34 0 0.68 0 0 Z " fill="#123E9A" transform="translate(257,223)"/>
<path d="M0 0 C0.33 0.66 0.66 1.32 1 2 C1.98020375 3.0194119 2.97803008 4.02246356 4 5 C-4.00694109 9.98209668 -11.93166568 9.40056446 -21 9 C-21 8.67 -21 8.34 -21 8 C-19.35 7.67 -17.7 7.34 -16 7 C-16.66 6.566875 -17.32 6.13375 -18 5.6875 C-18.66 5.130625 -19.32 4.57375 -20 4 C-20 3.01 -20 2.02 -20 1 C-17.60429729 0.8312461 -15.20846637 0.66493164 -12.8125 0.5 C-12.13896484 0.45230469 -11.46542969 0.40460938 -10.77148438 0.35546875 C-7.17363248 0.10976179 -3.60627694 -0.05601984 0 0 Z " fill="#3B5AAA" transform="translate(143,278)"/>
<path d="M0 0 C4.29245529 1.53301975 6.01922537 3.9677088 8 8 C8.79413523 13.34453009 8.67310361 17.60393326 6.3125 22.5 C4.02776118 24.96998791 1.9985145 26.50074275 -1 28 C-1.33 26.35 -1.66 24.7 -2 23 C1.465 22.505 1.465 22.505 5 22 C5 20.02 5 18.04 5 16 C4.01 16.33 3.02 16.66 2 17 C-0.47901044 13.33537588 -1.72824409 10.4386798 -2 6 C-1.0625 2.625 -1.0625 2.625 0 0 Z " fill="#0E3DA5" transform="translate(157,250)"/>
<path d="M0 0 C0.66 0.33 1.32 0.66 2 1 C2 7.6 2 14.2 2 21 C1.34 21 0.68 21 0 21 C0 21.66 0 22.32 0 23 C-1.65 22.67 -3.3 22.34 -5 22 C-7.15083538 15.54749386 -6.1500933 9.31589907 -4 3 C-2.68 2.67 -1.36 2.34 0 2 C0 1.34 0 0.68 0 0 Z " fill="#1D45A7" transform="translate(113,260)"/>
<path d="M0 0 C1.45009905 4.63401219 0.65212632 8.50076278 -1 13 C-3.21349471 15.65619365 -4.91939484 17.45969742 -8 19 C-10.0234375 19.16796875 -10.0234375 19.16796875 -12.375 19.1875 C-13.53128906 19.20876953 -13.53128906 19.20876953 -14.7109375 19.23046875 C-17.21834888 18.97801607 -18.83261902 18.25193467 -21 17 C-21 14.69 -21 12.38 -21 10 C-20.30132812 10.2165625 -19.60265625 10.433125 -18.8828125 10.65625 C-17.97273437 10.9346875 -17.06265625 11.213125 -16.125 11.5 C-15.22007812 11.7784375 -14.31515625 12.056875 -13.3828125 12.34375 C-11.09055353 13.08850794 -11.09055353 13.08850794 -9 13 C-8.67 12.34 -8.34 11.68 -8 11 C-7.01 11.66 -6.02 12.32 -5 13 C-5 10.36 -5 7.72 -5 5 C-4.01 5.66 -3.02 6.32 -2 7 C-1.34 4.69 -0.68 2.38 0 0 Z " fill="#123D9F" transform="translate(251,226)"/>
<path d="M0 0 C1.32 0 2.64 0 4 0 C4 2.64 4 5.28 4 8 C5.134375 8.474375 6.26875 8.94875 7.4375 9.4375 C11 11 11 11 12 12 C12.04063832 13.66617115 12.042721 15.33388095 12 17 C11.01 16.67 10.02 16.34 9 16 C9 14.68 9 13.36 9 12 C6.69 12 4.38 12 2 12 C2.33 12.33 2.66 12.66 3 13 C3.33 13 3.66 13 4 13 C4 15.31 4 17.62 4 20 C2.02 20 0.04 20 -2 20 C-2.05379226 17.04142591 -2.09357093 14.08382279 -2.125 11.125 C-2.14175781 10.28324219 -2.15851563 9.44148438 -2.17578125 8.57421875 C-2.18222656 7.76855469 -2.18867188 6.96289062 -2.1953125 6.1328125 C-2.21102295 5.01737061 -2.21102295 5.01737061 -2.22705078 3.87939453 C-2 2 -2 2 0 0 Z " fill="#0A379C" transform="translate(231,258)"/>
<path d="M0 0 C6.93 0 13.86 0 21 0 C21 0.66 21 1.32 21 2 C21.66 2 22.32 2 23 2 C23 2.66 23 3.32 23 4 C16.565 4.495 16.565 4.495 10 5 C9.67 5.99 9.34 6.98 9 8 C5.7 8.33 2.4 8.66 -1 9 C-1.33 8.01 -1.66 7.02 -2 6 C-1.01 5.67 -0.02 5.34 1 5 C1.33 4.34 1.66 3.68 2 3 C0.35 3 -1.3 3 -3 3 C-2.01 2.67 -1.02 2.34 0 2 C0 1.34 0 0.68 0 0 Z " fill="#0E3CA9" transform="translate(141,212)"/>
<path d="M0 0 C2.31 0.66 4.62 1.32 7 2 C6.835 2.9075 6.67 3.815 6.5 4.75 C5.89862854 8.11087503 5.89862854 8.11087503 6 12 C6 15.33333333 6 18.66666667 6 22 C4.02 22 2.04 22 0 22 C0 14.74 0 7.48 0 0 Z " fill="#0539A3" transform="translate(276,222)"/>
<path d="M0 0 C1.14275391 -0.00386719 1.14275391 -0.00386719 2.30859375 -0.0078125 C4.51565859 0.12223985 6.44219276 0.51643801 8.5625 1.125 C8.5625 3.435 8.5625 5.745 8.5625 8.125 C5.79973823 7.60231534 3.2364124 7.01630413 0.5625 6.125 C-1.65241214 6.5653555 -1.65241214 6.5653555 -3.4375 8.125 C-4.25334568 11.18408413 -4.25334568 11.18408413 -4.4375 14.125 C-6.4375 10.375 -6.4375 10.375 -6.4375 8.125 C-7.0975 8.125 -7.7575 8.125 -8.4375 8.125 C-9.0975 6.805 -9.7575 5.485 -10.4375 4.125 C-7.27024871 0.65610573 -4.61620933 -0.015569 0 0 Z " fill="#3C5EAA" transform="translate(299.4375,255.875)"/>
<path d="M0 0 C0.144375 0.598125 0.28875 1.19625 0.4375 1.8125 C1.27377641 5.06468603 2.16284615 7.24180185 4.0625 10.0625 C6 13 6 13 6 15 C5.38125 15.061875 4.7625 15.12375 4.125 15.1875 C1.72238859 15.828919 1.72238859 15.828919 0.75 18.5625 C0.5025 19.366875 0.255 20.17125 0 21 C-2.31 21 -4.62 21 -7 21 C-4.96192707 13.8821847 -2.59655258 6.93292719 0 0 Z " fill="#274C9F" transform="translate(213,223)"/>
<path d="M0 0 C0.66 0.33 1.32 0.66 2 1 C1.34 2.32 0.68 3.64 0 5 C1.32 5 2.64 5 4 5 C3.67 6.32 3.34 7.64 3 9 C3.66 9 4.32 9 5 9 C5 9.66 5 10.32 5 11 C5.66 11.33 6.32 11.66 7 12 C6.34 15.3 5.68 18.6 5 22 C3.68 22.33 2.36 22.66 1 23 C1.33 20.69 1.66 18.38 2 16 C0.02 15.01 -1.96 14.02 -4 13 C-3.42655063 10.13275314 -3.1385485 9.1385485 -1 7 C-1.66 5.68 -2.32 4.36 -3 3 C-2.01 2.01 -1.02 1.02 0 0 Z " fill="#284BA3" transform="translate(145,248)"/>
<path d="M0 0 C0.66 0 1.32 0 2 0 C2.103125 0.9075 2.20625 1.815 2.3125 2.75 C3.01230104 6.05815035 3.90234102 7.4463282 6 10 C6 10.66 6 11.32 6 12 C6.99 12 7.98 12 9 12 C10.125 15.75 10.125 15.75 9 18 C5.625 18.125 5.625 18.125 2 18 C-0.7888628 15.2111372 -0.9460083 13.12270971 -1.1328125 9.23828125 C-1.13023437 8.27277344 -1.12765625 7.30726563 -1.125 6.3125 C-1.12757813 5.33925781 -1.13015625 4.36601562 -1.1328125 3.36328125 C-1 1 -1 1 0 0 Z " fill="#2B51A7" transform="translate(255,261)"/>
<path d="M0 0 C2.31 0 4.62 0 7 0 C8.65 2.97 10.3 5.94 12 9 C11.67 9.33 11.34 9.66 11 10 C12.65 10.33 14.3 10.66 16 11 C15.34 12.98 14.68 14.96 14 17 C11.25 17.3125 11.25 17.3125 8 17 C5.625 14.75 5.625 14.75 4 12 C4 8.49064814 4.37542727 5.43515002 5 2 C3.35 1.67 1.7 1.34 0 1 C0 0.67 0 0.34 0 0 Z " fill="#1B47A8" transform="translate(277,222)"/>
<path d="M0 0 C6.27 0 12.54 0 19 0 C19 1.65 19 3.3 19 5 C16.98177083 4.96744792 14.96354167 4.93489583 12.9453125 4.90234375 C10.91814596 4.87350758 10.91814596 4.87350758 9 6 C8.01 7.485 8.01 7.485 7 9 C7 8.01 7 7.02 7 6 C4.69 5.67 2.38 5.34 0 5 C0 3.35 0 1.7 0 0 Z " fill="#113EA9" transform="translate(328,222)"/>
<path d="M0 0 C0 1.98 0 3.96 0 6 C-0.99 6.495 -0.99 6.495 -2 7 C-2.598125 6.690625 -3.19625 6.38125 -3.8125 6.0625 C-6.40898235 4.80135143 -8.1452592 4.77462573 -11 5 C-11.99 5.495 -11.99 5.495 -13 6 C-13.33 5.01 -13.66 4.02 -14 3 C-14.66 3 -15.32 3 -16 3 C-16 5.97 -16 8.94 -16 12 C-16.66 11.67 -17.32 11.34 -18 11 C-19.48101266 4.96202532 -19.48101266 4.96202532 -17.8125 1.625 C-13.371817 -2.356302 -5.43289044 -1.81096348 0 0 Z " fill="#365AA7" transform="translate(206,257)"/>
<path d="M0 0 C2.1519437 3.22791555 2.20086443 4.28400809 2 8 C4.97 8 7.94 8 11 8 C11 9.32 11 10.64 11 12 C6.05 12 1.1 12 -4 12 C-4 9.36 -4 6.72 -4 4 C-3.34 4 -2.68 4 -2 4 C-1.34 2.68 -0.68 1.36 0 0 Z " fill="#0E3899" transform="translate(315,266)"/>
<path d="M0 0 C0.99 0 1.98 0 3 0 C4.4783226 2.95664519 4.06032783 5.74229737 4 9 C5.32 9 6.64 9 8 9 C8 10.32 8 11.64 8 13 C3.71 13 -0.58 13 -5 13 C-5 11.35 -5 9.7 -5 8 C-3.68 8 -2.36 8 -1 8 C-0.67 5.36 -0.34 2.72 0 0 Z " fill="#0638A0" transform="translate(318,231)"/>
<path d="M0 0 C0.66 0 1.32 0 2 0 C2 6.6 2 13.2 2 20 C6.29 20 10.58 20 15 20 C15 19.34 15 18.68 15 18 C12.69 18 10.38 18 8 18 C8 17.67 8 17.34 8 17 C10.97 17 13.94 17 17 17 C17 18.65 17 20.3 17 22 C14.35409986 22.02684679 11.70846904 22.04676357 9.0625 22.0625 C8.30775391 22.07087891 7.55300781 22.07925781 6.77539062 22.08789062 C4.85005687 22.09652441 2.92464419 22.05224333 1 22 C0 21 0 21 -0.11352539 18.95874023 C-0.10828857 18.08419189 -0.10305176 17.20964355 -0.09765625 16.30859375 C-0.09443359 15.36435547 -0.09121094 14.42011719 -0.08789062 13.44726562 C-0.07951172 12.45404297 -0.07113281 11.46082031 -0.0625 10.4375 C-0.05798828 9.44041016 -0.05347656 8.44332031 -0.04882812 7.41601562 C-0.03700007 4.94395151 -0.02051849 2.47200482 0 0 Z " fill="#5F79AD" transform="translate(208,257)"/>
<path d="M0 0 C0.33 0 0.66 0 1 0 C1 4.29 1 8.58 1 13 C1.99 13 2.98 13 4 13 C4 14.65 4 16.3 4 18 C-0.62 18 -5.24 18 -10 18 C-10 16.35 -10 14.7 -10 13 C-2.25 11.875 -2.25 11.875 0 13 C0 8.71 0 4.42 0 0 Z " fill="#2751AD" transform="translate(282,261)"/>
<path d="M0 0 C0.7425 0.495 0.7425 0.495 1.5 1 C1.5 2.98 1.5 4.96 1.5 7 C-1.06434164 6.48713167 -3.62781543 5.97324793 -6.1875 5.4375 C-8.43526987 4.93803611 -8.43526987 4.93803611 -10.5 5 C-10.83 4.34 -11.16 3.68 -11.5 3 C-13.51669827 1.86649466 -13.51669827 1.86649466 -15.5 1 C-10.50367864 -1.49816068 -5.28145731 -2.11258292 0 0 Z " fill="#264A9D" transform="translate(204.5,222)"/>
<path d="M0 0 C0.7734375 -0.00257813 1.546875 -0.00515625 2.34375 -0.0078125 C4.5 0.125 4.5 0.125 7.5 1.125 C7.5 3.435 7.5 5.745 7.5 8.125 C6.778125 7.795 6.05625 7.465 5.3125 7.125 C2.48302573 6.11896471 0.47104534 5.95522598 -2.5 6.125 C-2.5 6.455 -2.5 6.785 -2.5 7.125 C-0.85 7.455 0.8 7.785 2.5 8.125 C0.6875 9.1875 0.6875 9.1875 -1.5 10.125 C-2.49 9.795 -3.48 9.465 -4.5 9.125 C-4.542721 7.45888095 -4.54063832 5.79117115 -4.5 4.125 C-4.17 3.795 -3.84 3.465 -3.5 3.125 C-4.82 2.465 -6.14 1.805 -7.5 1.125 C-4.68772378 0.18757459 -2.91253156 -0.00970844 0 0 Z " fill="#3658A3" transform="translate(339.5,255.875)"/>
<path d="M0 0 C13.97683909 3.44590272 13.97683909 3.44590272 20 8 C20.99 8.66 21.98 9.32 23 10 C22.67 10.66 22.34 11.32 22 12 C21.01 11.67 20.02 11.34 19 11 C19 10.34 19 9.68 19 9 C17.02 9.33 15.04 9.66 13 10 C12.67 8.68 12.34 7.36 12 6 C8.7 6.33 5.4 6.66 2 7 C1.67 5.68 1.34 4.36 1 3 C0.67 2.01 0.34 1.02 0 0 Z " fill="#2D51A5" transform="translate(134,238)"/>
<path d="M0 0 C2.64 0.33 5.28 0.66 8 1 C8 1.99 8 2.98 8 4 C9.32 4 10.64 4 12 4 C12 6.97 12 9.94 12 13 C10.35 13.33 8.7 13.66 7 14 C6.67 11.03 6.34 8.06 6 5 C3.69 4.34 1.38 3.68 -1 3 C-0.67 2.01 -0.34 1.02 0 0 Z " fill="#0A389F" transform="translate(260,223)"/>
<path d="M0 0 C1.27875 -0.061875 2.5575 -0.12375 3.875 -0.1875 C4.95394531 -0.23970703 4.95394531 -0.23970703 6.0546875 -0.29296875 C6.69664062 -0.19628906 7.33859375 -0.09960938 8 0 C9.7764862 2.66472931 10.61943013 4.56541408 11.5625 7.5625 C12.27618593 9.81449343 12.94322352 11.88644704 14 14 C11 13 11 13 9 11 C8.875 7.375 8.875 7.375 9 4 C8.01 4.495 8.01 4.495 7 5 C6.53348793 7.12576782 6.53348793 7.12576782 6.375 9.5625 C6.30023438 10.38878906 6.22546875 11.21507812 6.1484375 12.06640625 C6.09945312 12.70449219 6.05046875 13.34257812 6 14 C4.06061181 11.09091772 3.03225043 8.59137621 1.875 5.3125 C1.52179688 4.31863281 1.16859375 3.32476562 0.8046875 2.30078125 C0.53914062 1.54152344 0.27359375 0.78226562 0 0 Z " fill="#4366AF" transform="translate(248,257)"/>
<path d="M0 0 C0.33 0 0.66 0 1 0 C1 1.65 1 3.3 1 5 C-2.3 5 -5.6 5 -9 5 C-9 5.66 -9 6.32 -9 7 C-6.03 7 -3.06 7 0 7 C0 7.33 0 7.66 0 8 C-1.79158489 8.02696365 -3.58328473 8.04637917 -5.375 8.0625 C-6.37273437 8.07410156 -7.37046875 8.08570313 -8.3984375 8.09765625 C-11 8 -11 8 -13 7 C-13 5.02 -13 3.04 -13 1 C-11.71802734 1.01740234 -11.71802734 1.01740234 -10.41015625 1.03515625 C-8.75306641 1.04869141 -8.75306641 1.04869141 -7.0625 1.0625 C-5.40927734 1.07990234 -5.40927734 1.07990234 -3.72265625 1.09765625 C-1.08552366 1.31262571 -1.08552366 1.31262571 0 0 Z " fill="#1F47A4" transform="translate(224,257)"/>
<path d="M0 0 C3.2578125 0.0234375 3.2578125 0.0234375 7.125 0.375 C8.40632812 0.48585937 9.68765625 0.59671875 11.0078125 0.7109375 C12.48894531 0.85402344 12.48894531 0.85402344 14 1 C11.90749864 2.04625068 9.81483684 3.09005376 7.7109375 4.11328125 C2.75138745 6.5560407 2.75138745 6.5560407 -0.5625 10.8125 C-0.706875 11.534375 -0.85125 12.25625 -1 13 C-1.33 13 -1.66 13 -2 13 C-2 10.69 -2 8.38 -2 6 C-2.99 6.33 -3.98 6.66 -5 7 C-5 5 -5 5 -3.625 3.5 C-3.08875 3.005 -2.5525 2.51 -2 2 C-1.34 1.34 -0.68 0.68 0 0 Z " fill="#5474B7" transform="translate(134,226)"/>
<path d="M0 0 C0.33 0.99 0.66 1.98 1 3 C1.66 3 2.32 3 3 3 C3.99 6.3 4.98 9.6 6 13 C2 14 2 14 -0.25 13.0625 C-2.58103316 10.31521092 -2.40226094 8.4393776 -2.3359375 4.9375 C-2 3 -2 3 0 0 Z " fill="#14409C" transform="translate(290,261)"/>
<path d="M0 0 C3.375 -0.125 3.375 -0.125 7 0 C9 2 9 2 9.1953125 3.9453125 C9.13020833 5.96354167 9.06510417 7.98177083 9 10 C6.69 9.34 4.38 8.68 2 8 C2 7.01 2 6.02 2 5 C1.34 4.67 0.68 4.34 0 4 C0 2.68 0 1.36 0 0 Z " fill="#4D6BB0" transform="translate(238,257)"/>
<path d="M0 0 C3.96 0.33 7.92 0.66 12 1 C12.33 2.32 12.66 3.64 13 5 C11.35 5.33 9.7 5.66 8 6 C8 6.66 8 7.32 8 8 C5.03 8 2.06 8 -1 8 C-1 7.67 -1 7.34 -1 7 C0.65 6.67 2.3 6.34 4 6 C3.34 5.566875 2.68 5.13375 2 4.6875 C1.34 4.130625 0.68 3.57375 0 3 C0 2.01 0 1.02 0 0 Z " fill="#0D3C9F" transform="translate(123,279)"/>
<path d="M0 0 C2.21573665 1.75730837 2.9402273 2.65698012 3.43359375 5.48828125 C3.4418761 11.47642364 3.25642455 15.39845995 -1 20 C-3.75 21.875 -3.75 21.875 -6 23 C-6.33 21.35 -6.66 19.7 -7 18 C-3.535 17.505 -3.535 17.505 0 17 C0.02712153 15.083412 0.04645097 13.1667127 0.0625 11.25 C0.07410156 10.18265625 0.08570313 9.1153125 0.09765625 8.015625 C0.01480735 5.45725082 -0.36493778 3.44870838 -1 1 C-0.67 0.67 -0.34 0.34 0 0 Z " fill="#4561A6" transform="translate(162,255)"/>
<path d="M0 0 C2.31 0 4.62 0 7 0 C7 4.29 7 8.58 7 13 C8.32 13 9.64 13 11 13 C11 14.65 11 16.3 11 18 C10.67 16.68 10.34 15.36 10 14 C8.68 14 7.36 14 6 14 C5.67 11.03 5.34 8.06 5 5 C4.01 5 3.02 5 2 5 C2.04125 5.94875 2.0825 6.8975 2.125 7.875 C2 11 2 11 0 13 C0 8.71 0 4.42 0 0 Z " fill="#3556A6" transform="translate(316,226)"/>
<path d="M0 0 C2.31 0 4.62 0 7 0 C7 7.26 7 14.52 7 22 C4.69 22 2.38 22 0 22 C0 21.34 0 20.68 0 20 C1.65 20 3.3 20 5 20 C5 13.73 5 7.46 5 1 C3.35 1 1.7 1 0 1 C0 0.67 0 0.34 0 0 Z " fill="#3E5DAB" transform="translate(293,222)"/>
<path d="M0 0 C2.475 0.495 2.475 0.495 5 1 C5.33 1.99 5.66 2.98 6 4 C4.515 4.29003906 4.515 4.29003906 3 4.5859375 C-3.70812945 5.90583391 -10.38894572 7.24604682 -17 9 C-16.67 8.34 -16.34 7.68 -16 7 C-14.68 7 -13.36 7 -12 7 C-12.33 5.68 -12.66 4.36 -13 3 C-8.05 3 -3.1 3 2 3 C2 2.34 2 1.68 2 1 C1.34 0.67 0.68 0.34 0 0 Z " fill="#4A69AD" transform="translate(162,213)"/>
<path d="M0 0 C3.3 0 6.6 0 10 0 C10.33 1.32 10.66 2.64 11 4 C9.68 4 8.36 4 7 4 C7 5.65 7 7.3 7 9 C6.67 9 6.34 9 6 9 C5.875 3.25 5.875 3.25 7 1 C5.35 1.66 3.7 2.32 2 3 C1.67 8.94 1.34 14.88 1 21 C2.98 21 4.96 21 7 21 C7 21.33 7 21.66 7 22 C4.69 22 2.38 22 0 22 C0 14.74 0 7.48 0 0 Z " fill="#4565AB" transform="translate(228,257)"/>
<path d="M0 0 C0.66 0 1.32 0 2 0 C2 0.99 2 1.98 2 3 C5.3 3.33 8.6 3.66 12 4 C11.67 5.32 11.34 6.64 11 8 C9.54176788 8.0270043 8.08339325 8.04639787 6.625 8.0625 C5.81289062 8.07410156 5.00078125 8.08570313 4.1640625 8.09765625 C2 8 2 8 0 7 C0 4.69 0 2.38 0 0 Z " fill="#26479D" transform="translate(187,271)"/>
<path d="M0 0 C3.96 0.33 7.92 0.66 12 1 C12 1.33 12 1.66 12 2 C9.69 2 7.38 2 5 2 C5 3.65 5 5.3 5 7 C3.02 7.66 1.04 8.32 -1 9 C-2.16552619 4.80410573 -2.08954032 4.17908064 0 0 Z " fill="#254CA7" transform="translate(330,258)"/>
<path d="M0 0 C2.97 0 5.94 0 9 0 C8 4 8 4 6 6 C5.30251417 7.31747324 4.63040043 8.64914193 4 10 C3.67 8.02 3.34 6.04 3 4 C0.2160817 5.39195915 0.02101003 7.15575779 -1 10 C-1.66 10 -2.32 10 -3 10 C-2.01 6.7 -1.02 3.4 0 0 Z " fill="#4A69AE" transform="translate(264,257)"/>
<path d="M0 0 C1.98277913 1.5862233 2.23262361 2.77592708 2.5625 5.25 C1.5725 5.25 0.5825 5.25 -0.4375 5.25 C-0.4375 4.26 -0.4375 3.27 -0.4375 2.25 C-3.0775 1.92 -5.7175 1.59 -8.4375 1.25 C-8.4375 1.91 -8.4375 2.57 -8.4375 3.25 C-7.7775 3.91 -7.1175 4.57 -6.4375 5.25 C-7.4275 5.58 -8.4175 5.91 -9.4375 6.25 C-10.0975 4.6 -10.7575 2.95 -11.4375 1.25 C-11.4375 1.91 -11.4375 2.57 -11.4375 3.25 C-12.0975 3.25 -12.7575 3.25 -13.4375 3.25 C-13.7675 4.24 -14.0975 5.23 -14.4375 6.25 C-14.4375 5.59 -14.4375 4.93 -14.4375 4.25 C-15.0975 3.92 -15.7575 3.59 -16.4375 3.25 C-12.06072523 -1.54361046 -6.00630207 -1.84809295 0 0 Z " fill="#3B5FAB" transform="translate(268.4375,221.75)"/>
<path d="M0 0 C0.66 0.33 1.32 0.66 2 1 C2.24042276 5.08718695 1.42258812 8.17679443 0 12 C-0.66 11.67 -1.32 11.34 -2 11 C-2 10.34 -2 9.68 -2 9 C-4.51083114 10.25541557 -4.87125446 11.50063488 -6 14 C-6.14285714 6.57142857 -6.14285714 6.57142857 -5 3 C-3.35 2.67 -1.7 2.34 0 2 C0 1.34 0 0.68 0 0 Z " fill="#0D3794" transform="translate(257,223)"/>
<path d="M0 0 C0.33 0 0.66 0 1 0 C0.51454933 6.43222143 0.51454933 6.43222143 -1.8125 9 C-4 10 -4 10 -6.25 9.6875 C-6.8275 9.460625 -7.405 9.23375 -8 9 C-7.67 8.01 -7.34 7.02 -7 6 C-8.093125 6.020625 -9.18625 6.04125 -10.3125 6.0625 C-14 6 -14 6 -17 5 C-17 4.34 -17 3.68 -17 3 C-12.05 3.99 -12.05 3.99 -7 5 C-7.33 4.01 -7.66 3.02 -8 2 C-7.34 2 -6.68 2 -6 2 C-5.67 3.32 -5.34 4.64 -5 6 C-4.01 6 -3.02 6 -2 6 C-2 5.34 -2 4.68 -2 4 C-1.34 4 -0.68 4 0 4 C0 2.68 0 1.36 0 0 Z " fill="#5675B6" transform="translate(206,269)"/>
<path d="M0 0 C6.93 0 13.86 0 21 0 C21 0.66 21 1.32 21 2 C21.66 2 22.32 2 23 2 C23 2.66 23 3.32 23 4 C19.7 4 16.4 4 13 4 C12.67 3.01 12.34 2.02 12 1 C8.04 1 4.08 1 0 1 C0 0.67 0 0.34 0 0 Z " fill="#2B51A7" transform="translate(141,212)"/>
<path d="M0 0 C0.99 0.33 1.98 0.66 3 1 C3 1.99 3 2.98 3 4 C4.32 4.66 5.64 5.32 7 6 C6.67 6.66 6.34 7.32 6 8 C8.97 8.495 8.97 8.495 12 9 C12 9.33 12 9.66 12 10 C7.05 10 2.1 10 -3 10 C-2.34 9.67 -1.68 9.34 -1 9 C-0.53348793 6.87423218 -0.53348793 6.87423218 -0.375 4.4375 C-0.30023438 3.61121094 -0.22546875 2.78492188 -0.1484375 1.93359375 C-0.09945312 1.29550781 -0.05046875 0.65742188 0 0 Z " fill="#5B7CC5" transform="translate(121,278)"/>
<path d="M0 0 C0.144375 0.598125 0.28875 1.19625 0.4375 1.8125 C1.27377641 5.06468603 2.16284615 7.24180185 4.0625 10.0625 C6 13 6 13 6 15 C2.7 14.01 -0.6 13.02 -4 12 C-1.125 2.25 -1.125 2.25 0 0 Z " fill="#365AB1" transform="translate(213,223)"/>
<path d="M0 0 C2.0625 0.4375 2.0625 0.4375 4 1 C3 4 3 4 -0.25 5.6875 C-3.54126631 6.83944321 -5.5872117 7.31025348 -9 7 C-9 5.68 -9 4.36 -9 3 C-8.43410156 2.86722656 -7.86820313 2.73445313 -7.28515625 2.59765625 C-6.18494141 2.33275391 -6.18494141 2.33275391 -5.0625 2.0625 C-4.33160156 1.88847656 -3.60070312 1.71445312 -2.84765625 1.53515625 C-1.00030102 1.16112431 -1.00030102 1.16112431 0 0 Z " fill="#3C5AA5" transform="translate(141,271)"/>
<path d="M0 0 C0.66 0 1.32 0 2 0 C2.12375 0.9075 2.2475 1.815 2.375 2.75 C2.92802286 5.62571885 3.68078293 7.44951366 5 10 C5 10.99 5 11.98 5 13 C2.03 12.505 2.03 12.505 -1 12 C-1.02687279 10.18757948 -1.04633715 8.37504767 -1.0625 6.5625 C-1.07410156 5.55316406 -1.08570313 4.54382813 -1.09765625 3.50390625 C-1 1 -1 1 0 0 Z " fill="#123CA2" transform="translate(255,261)"/>
<path d="M0 0 C0.99 0.33 1.98 0.66 3 1 C3.94921875 3.28515625 3.94921875 3.28515625 4.6875 6.0625 C4.93886719 6.98160156 5.19023437 7.90070313 5.44921875 8.84765625 C5.63097656 9.55792969 5.81273437 10.26820313 6 11 C3.625 11.1875 3.625 11.1875 1 11 C-1.43769218 7.34346173 -1.23944439 5.30999899 -1 1 C-0.67 0.67 -0.34 0.34 0 0 Z " fill="#173EA5" transform="translate(190,259)"/>
<path d="M0 0 C0.33 0.99 0.66 1.98 1 3 C3.31 3.33 5.62 3.66 8 4 C8 4.66 8 5.32 8 6 C11.3 6.66 14.6 7.32 18 8 C18 8.66 18 9.32 18 10 C18.99 10.33 19.98 10.66 21 11 C12.95603803 9.96872282 5.79834491 7.39059776 -1 3 C-1.33 2.34 -1.66 1.68 -2 1 C-1.34 0.67 -0.68 0.34 0 0 Z " fill="#667EBB" transform="translate(120,241)"/>
<path d="M0 0 C5.76592177 1.07500236 9.4501635 1.96152239 13 7 C13.125 10.125 13.125 10.125 12 13 C9.4375 14.875 9.4375 14.875 7 16 C7 15.34 7 14.68 7 14 C7.66 14 8.32 14 9 14 C9 10.7 9 7.4 9 4 C6.36 3.67 3.72 3.34 1 3 C0.67 2.01 0.34 1.02 0 0 Z " fill="#5F7BB7" transform="translate(194,228)"/>
<path d="M0 0 C2.97 0.99 5.94 1.98 9 3 C8.67 3.66 8.34 4.32 8 5 C6.35 5 4.7 5 3 5 C6.44450737 7.29633824 8.93812283 7.54016485 13 8 C13 8.33 13 8.66 13 9 C11.58376784 9.05447047 10.16691809 9.09300508 8.75 9.125 C7.96109375 9.14820313 7.1721875 9.17140625 6.359375 9.1953125 C3.79268059 8.9828378 2.2083933 8.28654105 0 7 C0 4.69 0 2.38 0 0 Z " fill="#5C76B4" transform="translate(230,236)"/>
<path d="M0 0 C1.134375 0.020625 2.26875 0.04125 3.4375 0.0625 C4.9158226 3.01914519 4.49782783 5.80479737 4.4375 9.0625 C0.45574456 6.96101796 -1.91289045 4.69344642 -4.5625 1.0625 C-3.5625 0.0625 -3.5625 0.0625 0 0 Z " fill="#0F389D" transform="translate(242.5625,230.9375)"/>
<path d="M0 0 C0 3.63 0 7.26 0 11 C-1.65 11 -3.3 11 -5 11 C-5.36637589 4.64948454 -5.36637589 4.64948454 -3.625 1.5625 C-2 0 -2 0 0 0 Z " fill="#1D49A9" transform="translate(298,231)"/>
<path d="M0 0 C-0.33 2.97 -0.66 5.94 -1 9 C-2.98 9 -4.96 9 -7 9 C-7 7.35 -7 5.7 -7 4 C-6.34 4 -5.68 4 -5 4 C-5 3.34 -5 2.68 -5 2 C-1.125 0 -1.125 0 0 0 Z " fill="#264AA3" transform="translate(121,278)"/>
<path d="M0 0 C0.33 0 0.66 0 1 0 C1.12375 1.11375 1.2475 2.2275 1.375 3.375 C1.6465813 7.03103677 1.6465813 7.03103677 4 9 C2.0625 9.5625 2.0625 9.5625 0 10 C-0.33 9.67 -0.66 9.34 -1 9 C-3.16666667 9.83333333 -3.16666667 9.83333333 -4 12 C-4.66 11.34 -5.32 10.68 -6 10 C-5.625 6.375 -5.625 6.375 -5 3 C-4.01 2.67 -3.02 2.34 -2 2 C-1.67 2.66 -1.34 3.32 -1 4 C-0.67 2.68 -0.34 1.36 0 0 Z " fill="#466ABA" transform="translate(257,230)"/>
<path d="M0 0 C4.875 0.875 4.875 0.875 6 2 C8.32817964 2.36760731 10.6618385 2.70241581 13 3 C13 3.33 13 3.66 13 4 C11.02 4 9.04 4 7 4 C7 4.66 7 5.32 7 6 C4.69 6.33 2.38 6.66 0 7 C0 4.69 0 2.38 0 0 Z " fill="#3B67B7" transform="translate(328,271)"/>
<path d="M0 0 C0.99 0 1.98 0 3 0 C3.33 0.99 3.66 1.98 4 3 C4.66 3.33 5.32 3.66 6 4 C7.10570645 7.61867567 7.13928221 10.39227299 6 14 C4.5 15.6875 4.5 15.6875 3 17 C2.67 17.66 2.34 18.32 2 19 C1.01 18.67 0.02 18.34 -1 18 C-0.01 16.9790625 -0.01 16.9790625 1 15.9375 C3.48980198 12.28060335 3.55310065 10.34579086 3 6 C1.60042803 3.71515694 1.60042803 3.71515694 0 2 C0 1.34 0 0.68 0 0 Z " fill="#184098" transform="translate(149,255)"/>
<path d="M0 0 C2.875 -0.125 2.875 -0.125 6 0 C6.66 0.66 7.32 1.32 8 2 C6.02 2.33 4.04 2.66 2 3 C2.495 3.45375 2.99 3.9075 3.5 4.375 C5 6 5 6 5 8 C0.545 7.01 0.545 7.01 -4 6 C-4 5.01 -4 4.02 -4 3 C-3.01 3 -2.02 3 -1 3 C-0.67 2.01 -0.34 1.02 0 0 Z " fill="#4867AE" transform="translate(237,229)"/>
<path d="M0 0 C4.62 0 9.24 0 14 0 C14 1.32 14 2.64 14 4 C11.03 4 8.06 4 5 4 C5.99 3.67 6.98 3.34 8 3 C8 2.34 8 1.68 8 1 C5.69 1 3.38 1 1 1 C1 2.32 1 3.64 1 5 C0.34 5 -0.32 5 -1 5 C-0.67 3.35 -0.34 1.7 0 0 Z " fill="#0E3893" transform="translate(312,257)"/>
<path d="M0 0 C6.27 0 12.54 0 19 0 C19 1.65 19 3.3 19 5 C16.69 5 14.38 5 12 5 C12 4.67 12 4.34 12 4 C13.65 4 15.3 4 17 4 C16.67 3.34 16.34 2.68 16 2 C13.45058627 1.68758629 10.99638487 1.48696579 8.4375 1.375 C7.72658203 1.33632812 7.01566406 1.29765625 6.28320312 1.2578125 C4.52257575 1.16328217 2.76132272 1.08054183 1 1 C1 1.99 1 2.98 1 4 C2.65 4 4.3 4 6 4 C6 4.33 6 4.66 6 5 C4.02 5 2.04 5 0 5 C0 3.35 0 1.7 0 0 Z " fill="#143788" transform="translate(328,222)"/>
<path d="M0 0 C1.32 0.33 2.64 0.66 4 1 C3.67 1.66 3.34 2.32 3 3 C6.3 3 9.6 3 13 3 C13.33 2.01 13.66 1.02 14 0 C14 1.65 14 3.3 14 5 C9.38 5 4.76 5 0 5 C0 3.35 0 1.7 0 0 Z " fill="#4564A6" transform="translate(272,274)"/>
<path d="M0 0 C1.9375 0.5625 1.9375 0.5625 4 2 C5.0625 5.3125 5.0625 5.3125 5 9 C2.75 11.9375 2.75 11.9375 0 14 C-0.99 14 -1.98 14 -3 14 C-3 13.01 -3 12.02 -3 11 C-1.35 11 0.3 11 2 11 C2 8.03 2 5.06 2 2 C1.34 2 0.68 2 0 2 C0 1.34 0 0.68 0 0 Z " fill="#3A58A1" transform="translate(343,265)"/>
<path d="M0 0 C0.66 1.65 1.32 3.3 2 5 C3.65 5 5.3 5 7 5 C6.01 5.99 5.02 6.98 4 8 C0.63061102 6.87687034 -0.53174093 5.46825907 -3 3 C-5.21072977 2.75746187 -5.21072977 2.75746187 -7.625 2.875 C-8.85089844 2.90207031 -8.85089844 2.90207031 -10.1015625 2.9296875 C-11.04128906 2.96449219 -11.04128906 2.96449219 -12 3 C-12 2.67 -12 2.34 -12 2 C-7.8803623 0.70756464 -4.33168317 -0.26252625 0 0 Z " fill="#4C71C2" transform="translate(144,276)"/>
<path d="M0 0 C0.66 0.33 1.32 0.66 2 1 C1.34 2.32 0.68 3.64 0 5 C1.32 5 2.64 5 4 5 C3.67 6.32 3.34 7.64 3 9 C3.66 9 4.32 9 5 9 C5 9.66 5 10.32 5 11 C5.66 11.33 6.32 11.66 7 12 C3 12 3 12 0.875 10.3125 C-1.04824127 7.94050243 -2.03927572 5.88217283 -3 3 C-2.01 2.01 -1.02 1.02 0 0 Z " fill="#6380C2" transform="translate(145,248)"/>
<path d="M0 0 C1.2065625 0.0309375 1.2065625 0.0309375 2.4375 0.0625 C2.08700425 3.30458567 1.87528819 4.67777704 -0.625 6.875 C-1.264375 7.266875 -1.90375 7.65875 -2.5625 8.0625 C-3.5525 7.4025 -4.5425 6.7425 -5.5625 6.0625 C-3.26136364 0.07954545 -3.26136364 0.07954545 0 0 Z " fill="#113C9D" transform="translate(143.5625,243.9375)"/>
<path d="M0 0 C0.33 0 0.66 0 1 0 C1 6.93 1 13.86 1 21 C2.32 21 3.64 21 5 21 C4.835 19.906875 4.67 18.81375 4.5 17.6875 C4 14 4 14 4 11 C4.66 11.33 5.32 11.66 6 12 C6 15.3 6 18.6 6 22 C4.02 22 2.04 22 0 22 C0 14.74 0 7.48 0 0 Z " fill="#18388F" transform="translate(276,222)"/>
<path d="M0 0 C0.33 0.66 0.66 1.32 1 2 C1.98020375 3.0194119 2.97803008 4.02246356 4 5 C1.04335481 6.4783226 -1.74229737 6.06032783 -5 6 C-5.66 4.35 -6.32 2.7 -7 1 C-4.53721199 -0.231394 -2.7204945 -0.07159196 0 0 Z " fill="#0C3B9E" transform="translate(143,278)"/>
<path d="M0 0 C2.64 0.33 5.28 0.66 8 1 C8.33 2.32 8.66 3.64 9 5 C9.99 5 10.98 5 12 5 C12 5.66 12 6.32 12 7 C11.34 7 10.68 7 10 7 C9.67 7.66 9.34 8.32 9 9 C7.68 7.35 6.36 5.7 5 4 C4.67 5.65 4.34 7.3 4 9 C3.67 9 3.34 9 3 9 C2.67 7.02 2.34 5.04 2 3 C1.01 2.67 0.02 2.34 -1 2 C-0.67 1.34 -0.34 0.68 0 0 Z " fill="#5C7BBC" transform="translate(232,269)"/>
<path d="M0 0 C0.99 0 1.98 0 3 0 C2.34 3.96 1.68 7.92 1 12 C-0.32 12.33 -1.64 12.66 -3 13 C-3.25 7.375 -3.25 7.375 -1 4 C-0.36707617 1.88719655 -0.36707617 1.88719655 0 0 Z " fill="#0639A3" transform="translate(280,258)"/>
<path d="M0 0 C2 1 2 1 3.0703125 3.94140625 C3.41835937 5.13636719 3.76640625 6.33132812 4.125 7.5625 C4.47820312 8.76003906 4.83140625 9.95757812 5.1953125 11.19140625 C5.46085938 12.11824219 5.72640625 13.04507813 6 14 C4.02 14 2.04 14 0 14 C0.66 13.67 1.32 13.34 2 13 C1.67 11.35 1.34 9.7 1 8 C0.34 8 -0.32 8 -1 8 C-0.67 5.36 -0.34 2.72 0 0 Z " fill="#4663A7" transform="translate(224,230)"/>
<path d="M0 0 C8.57142857 -0.28571429 8.57142857 -0.28571429 12 2 C12 3.98 12 5.96 12 8 C9.5625 7.625 9.5625 7.625 7 7 C6.67 6.34 6.34 5.68 6 5 C6.99 5 7.98 5 9 5 C9 4.01 9 3.02 9 2 C6.03 1.67 3.06 1.34 0 1 C0 0.67 0 0.34 0 0 Z " fill="#5F7DB5" transform="translate(237,221)"/>
<path d="M0 0 C0.66 0.33 1.32 0.66 2 1 C2.40652968 6.42039575 1.03993514 10.07015675 -1 15 C-2.07174763 11.34811918 -1.76411467 8.73567172 -1 5 C-1.99 4.67 -2.98 4.34 -4 4 C-2.68 2.68 -1.36 1.36 0 0 Z " fill="#6078B6" transform="translate(118,251)"/>
<path d="M0 0 C2 3 2 3 2 5 C3.85625 5.433125 3.85625 5.433125 5.75 5.875 C8.72448742 6.61334794 11.333856 7.44474933 14 9 C14 9.99 14 10.98 14 12 C13.34 12 12.68 12 12 12 C12 11.34 12 10.68 12 10 C11.38511719 9.90203125 10.77023438 9.8040625 10.13671875 9.703125 C3.52863436 8.48057669 3.52863436 8.48057669 0.9375 6.125 C0 4 0 4 0 0 Z " fill="#4665A9" transform="translate(187,227)"/>
<path d="M0 0 C1.65 0 3.3 0 5 0 C5.33 1.32 5.66 2.64 6 4 C5.34 4 4.68 4 4 4 C4 5.32 4 6.64 4 8 C3.01 8 2.02 8 1 8 C-0.35439668 5.29120665 -0.06501451 2.99066732 0 0 Z " fill="#113EA2" transform="translate(188,224)"/>
<path d="M0 0 C0.99 0.33 1.98 0.66 3 1 C3 2.98 3 4.96 3 7 C-0.55780196 6.39009109 -3.6828589 5.4216319 -7 4 C-7 3.67 -7 3.34 -7 3 C-5.35 3 -3.7 3 -2 3 C-2 2.34 -2 1.68 -2 1 C-1.34 0.67 -0.68 0.34 0 0 Z " fill="#516FAD" transform="translate(203,222)"/>
<path d="M0 0 C1.2065625 0.0309375 1.2065625 0.0309375 2.4375 0.0625 C2.4375 1.0525 2.4375 2.0425 2.4375 3.0625 C1.1175 3.3925 -0.2025 3.7225 -1.5625 4.0625 C-1.5625 4.7225 -1.5625 5.3825 -1.5625 6.0625 C-2.2225 6.0625 -2.8825 6.0625 -3.5625 6.0625 C-3.5625 7.3825 -3.5625 8.7025 -3.5625 10.0625 C-6.0375 9.0725 -6.0375 9.0725 -8.5625 8.0625 C-7.2425 7.7325 -5.9225 7.4025 -4.5625 7.0625 C-4.5625 6.4025 -4.5625 5.7425 -4.5625 5.0625 C-3.9025 5.0625 -3.2425 5.0625 -2.5625 5.0625 C-2.8409375 4.1034375 -2.8409375 4.1034375 -3.125 3.125 C-3.269375 2.444375 -3.41375 1.76375 -3.5625 1.0625 C-2.5625 0.0625 -2.5625 0.0625 0 0 Z " fill="#3159AF" transform="translate(117.5625,275.9375)"/>
<path d="M0 0 C1.04370776 3.21932394 0.92371112 5.35356679 0.125 8.625 C-0.05804688 9.40101563 -0.24109375 10.17703125 -0.4296875 10.9765625 C-1 13 -1 13 -2 15 C-2.66 15 -3.32 15 -4 15 C-4.33 11.7 -4.66 8.4 -5 5 C-3.515 5.99 -3.515 5.99 -2 7 C-1.34 4.69 -0.68 2.38 0 0 Z " fill="#6F8CC7" transform="translate(251,226)"/>
<path d="M0 0 C0.33 1.98 0.66 3.96 1 6 C-3.3177458 5.49202991 -7.03302114 4.80317221 -11 3 C-11 2.67 -11 2.34 -11 2 C-3.375 0 -3.375 0 0 0 Z " fill="#4362AE" transform="translate(168,218)"/>
<path d="M0 0 C2.475 0.495 2.475 0.495 5 1 C5.33 2.98 5.66 4.96 6 7 C4.35 7 2.7 7 1 7 C0 2.25 0 2.25 0 0 Z " fill="#0B379A" transform="translate(219,227)"/>
<path d="M0 0 C1.35158203 0.15275391 1.35158203 0.15275391 2.73046875 0.30859375 C3.41753906 0.39238281 4.10460937 0.47617188 4.8125 0.5625 C2.13157309 3.24342691 0.42082637 2.94920257 -3.3125 3.1875 C-4.40820312 3.26226562 -5.50390625 3.33703125 -6.6328125 3.4140625 C-7.47585937 3.46304688 -8.31890625 3.51203125 -9.1875 3.5625 C-8.8575 2.5725 -8.5275 1.5825 -8.1875 0.5625 C-4.98734144 -0.50421952 -3.30205706 -0.38595472 0 0 Z " fill="#1D4196" transform="translate(162.1875,221.4375)"/>
<path d="M0 0 C2.31 0.33 4.62 0.66 7 1 C7 2.98 7 4.96 7 7 C6.01 7.495 6.01 7.495 5 8 C3.68 7.01 2.36 6.02 1 5 C1.66 4.67 2.32 4.34 3 4 C2.01 2.68 1.02 1.36 0 0 Z " fill="#5D77AD" transform="translate(199,256)"/>
<path d="M0 0 C2.475 0.495 2.475 0.495 5 1 C5 1.66 5 2.32 5 3 C7.31 3.33 9.62 3.66 12 4 C12.33 3.01 12.66 2.02 13 1 C13 2.32 13 3.64 13 5 C8.71 5 4.42 5 0 5 C0 3.35 0 1.7 0 0 Z " fill="#13358D" transform="translate(313,239)"/>
<path d="M0 0 C2.31 0 4.62 0 7 0 C8.65 2.97 10.3 5.94 12 9 C10.02 8.34 8.04 7.68 6 7 C5.67 5.35 5.34 3.7 5 2 C3.35 1.67 1.7 1.34 0 1 C0 0.67 0 0.34 0 0 Z " fill="#4867B2" transform="translate(277,222)"/>
<path d="M0 0 C2.97 0 5.94 0 9 0 C9 1.32 9 2.64 9 4 C6.36 4 3.72 4 1 4 C1.33 3.34 1.66 2.68 2 2 C1.34 1.34 0.68 0.68 0 0 Z " fill="#0F3995" transform="translate(215,265)"/>
<path d="M0 0 C1.5 1.3125 1.5 1.3125 3 3 C3 3.99 3 4.98 3 6 C3.33 6.66 3.66 7.32 4 8 C2.35 8 0.7 8 -1 8 C-1.625 5.125 -1.625 5.125 -2 2 C-1.34 1.34 -0.68 0.68 0 0 Z " fill="#0F3B9F" transform="translate(147,273)"/>
<path d="M0 0 C5.94 0.99 5.94 0.99 12 2 C12 2.66 12 3.32 12 4 C8.04 4 4.08 4 0 4 C0 2.68 0 1.36 0 0 Z " fill="#0839A4" transform="translate(211,273)"/>
<path d="M0 0 C0.90105469 0.00902344 1.80210937 0.01804687 2.73046875 0.02734375 C3.41753906 0.03894531 4.10460937 0.05054688 4.8125 0.0625 C4.8125 0.7225 4.8125 1.3825 4.8125 2.0625 C0.8311217 3.3896261 -3.03795227 3.13165913 -7.1875 3.0625 C-7.5175 2.4025 -7.8475 1.7425 -8.1875 1.0625 C-5.17259443 0.05753148 -3.14568308 -0.04085303 0 0 Z " fill="#093A96" transform="translate(338.1875,264.9375)"/>
<path d="M0 0 C2.475 0.495 2.475 0.495 5 1 C5 3.31 5 5.62 5 8 C3.0625 7.375 3.0625 7.375 1 6 C0.25 2.875 0.25 2.875 0 0 Z " fill="#0B36A0" transform="translate(241,259)"/>
<path d="M0 0 C2.97 0 5.94 0 9 0 C9 0.99 9 1.98 9 3 C5.67465243 4.10844919 3.37817425 3.84454356 0 3 C0 2.01 0 1.02 0 0 Z " fill="#0837A3" transform="translate(329,223)"/>
<path d="M0 0 C1.65 0.33 3.3 0.66 5 1 C3.5 3 3.5 3 1 5 C-1.75871627 5.35800135 -4.20097524 5.18660165 -7 5 C-6.34 4.01 -5.68 3.02 -5 2 C-2.375 1.8125 -2.375 1.8125 0 2 C0 1.34 0 0.68 0 0 Z " fill="#2950AB" transform="translate(126,219)"/>
<path d="M0 0 C0.99 0 1.98 0 3 0 C3 2.31 3 4.62 3 7 C0.69 6.67 -1.62 6.34 -4 6 C-3.01 5.67 -2.02 5.34 -1 5 C-0.67 3.35 -0.34 1.7 0 0 Z " fill="#4A6AB3" transform="translate(305,271)"/>
<path d="M0 0 C0.66 0.33 1.32 0.66 2 1 C-2.625 6.875 -2.625 6.875 -6 8 C-6.33 6.35 -6.66 4.7 -7 3 C-3.535 2.505 -3.535 2.505 0 2 C0 1.34 0 0.68 0 0 Z " fill="#4767B1" transform="translate(162,270)"/>
<path d="M0 0 C0.66 0 1.32 0 2 0 C2.66 2.64 3.32 5.28 4 8 C2.68 8.33 1.36 8.66 0 9 C-1.125 3.375 -1.125 3.375 0 0 Z " fill="#0A37A0" transform="translate(292,266)"/>
<path d="M0 0 C2.4375 0.75 2.4375 0.75 5 2 C5.8125 4.125 5.8125 4.125 6 6 C4.1875 6.6875 4.1875 6.6875 2 7 C0.1875 5.8125 0.1875 5.8125 -1 4 C-0.6875 1.8125 -0.6875 1.8125 0 0 Z " fill="#204EAE" transform="translate(149,274)"/>
<path d="M0 0 C0.99 0 1.98 0 3 0 C3 0.66 3 1.32 3 2 C3.99 2.33 4.98 2.66 6 3 C5.0409375 3.309375 5.0409375 3.309375 4.0625 3.625 C1.65074923 4.89538209 1.65074923 4.89538209 1.25 8.125 C1.1675 9.07375 1.085 10.0225 1 11 C-0.20628008 8.66785852 -1.1654738 6.50357861 -2 4 C-1.34 4 -0.68 4 0 4 C0 2.68 0 1.36 0 0 Z " fill="#3E63B1" transform="translate(294,259)"/>
<path d="M0 0 C3.45925163 1.2491742 6.14693203 2.67527795 9 5 C8.67 5.66 8.34 6.32 8 7 C7.01 6.67 6.02 6.34 5 6 C5 5.34 5 4.68 5 4 C3.02 4.33 1.04 4.66 -1 5 C-1 2 -1 2 0 0 Z " fill="#6583BE" transform="translate(148,243)"/>
<path d="M0 0 C2.1519437 3.22791555 2.20086443 4.28400809 2 8 C2.66 8.33 3.32 8.66 4 9 C3.01 9 2.02 9 1 9 C0.67 8.01 0.34 7.02 0 6 C-1.32 6.33 -2.64 6.66 -4 7 C-4 6.01 -4 5.02 -4 4 C-3.34 4 -2.68 4 -2 4 C-1.34 2.68 -0.68 1.36 0 0 Z " fill="#1E4BAC" transform="translate(315,266)"/>
<path d="M0 0 C1.53445094 3.06890187 0.54984289 5.70094266 0 9 C-0.33 8.34 -0.66 7.68 -1 7 C-1.99 7 -2.98 7 -4 7 C-4 5.02 -4 3.04 -4 1 C-2.68 0.67 -1.36 0.34 0 0 Z " fill="#0B379D" transform="translate(265,266)"/>
<path d="M0 0 C1.45903258 0.30921884 2.91720722 0.62248799 4.375 0.9375 C5.18710938 1.11152344 5.99921875 1.28554688 6.8359375 1.46484375 C9 2 9 2 11 3 C10.67 3.66 10.34 4.32 10 5 C6.7 4.34 3.4 3.68 0 3 C0 2.01 0 1.02 0 0 Z " fill="#5071AE" transform="translate(194,263)"/>
<path d="M0 0 C0.33 0 0.66 0 1 0 C1 1.65 1 3.3 1 5 C2.65 5 4.3 5 6 5 C5.67 6.32 5.34 7.64 5 9 C3.35 9 1.7 9 0 9 C-1.125 3.375 -1.125 3.375 0 0 Z " fill="#2B52A5" transform="translate(231,224)"/>
<path d="M0 0 C1.32 0 2.64 0 4 0 C4.33 1.65 4.66 3.3 5 5 C3.02 5.33 1.04 5.66 -1 6 C-0.67 4.02 -0.34 2.04 0 0 Z " fill="#09369C" transform="translate(232,224)"/>
<path d="M0 0 C-0.99 0 -1.98 0 -3 0 C-3 0.66 -3 1.32 -3 2 C-2.34 2.66 -1.68 3.32 -1 4 C-2.65 4 -4.3 4 -6 4 C-6 3.34 -6 2.68 -6 2 C-7.98 2 -9.96 2 -12 2 C-7.72170329 -0.29194467 -4.74957752 -1.52664992 0 0 Z " fill="#5F7CBB" transform="translate(157,222)"/>
<path d="M0 0 C1.32 0.66 2.64 1.32 4 2 C4 1.34 4 0.68 4 0 C4.99 0.33 5.98 0.66 7 1 C6.67 1.66 6.34 2.32 6 3 C3.4375 3.625 3.4375 3.625 1 4 C0.67 4.99 0.34 5.98 0 7 C-0.33 7 -0.66 7 -1 7 C-1.04254356 5.00045254 -1.04080783 2.99958364 -1 1 C-0.67 0.67 -0.34 0.34 0 0 Z " fill="#3158AA" transform="translate(131,223)"/>
<path d="M0 0 C0.66 0.33 1.32 0.66 2 1 C1.67 1.99 1.34 2.98 1 4 C-2.3 4.66 -5.6 5.32 -9 6 C-8.34 5.67 -7.68 5.34 -7 5 C-7 4.34 -7 3.68 -7 3 C-4.69631264 1.93347808 -2.35981813 0.93578995 0 0 Z " fill="#4766AF" transform="translate(132,215)"/>
<path d="M0 0 C0.33 0 0.66 0 1 0 C0.6875 3.375 0.6875 3.375 0 7 C-0.99 7.66 -1.98 8.32 -3 9 C-3 8.34 -3 7.68 -3 7 C-3.99 7 -4.98 7 -6 7 C-6.66 5.35 -7.32 3.7 -8 2 C-7.34 2 -6.68 2 -6 2 C-5.67 3.32 -5.34 4.64 -5 6 C-4.01 6 -3.02 6 -2 6 C-2 5.34 -2 4.68 -2 4 C-1.34 4 -0.68 4 0 4 C0 2.68 0 1.36 0 0 Z " fill="#6983C0" transform="translate(206,269)"/>
<path d="M0 0 C0.33 0.99 0.66 1.98 1 3 C3.31 3.33 5.62 3.66 8 4 C8.33 4.99 8.66 5.98 9 7 C3.64951939 6.62671065 1.49087093 5.0042343 -2 1 C-1.34 0.67 -0.68 0.34 0 0 Z " fill="#5273B1" transform="translate(120,241)"/>
<path d="M0 0 C0.90105469 0.01804688 1.80210937 0.03609375 2.73046875 0.0546875 C3.41753906 0.07789063 4.10460937 0.10109375 4.8125 0.125 C2.8125 2.25 2.8125 2.25 -0.1875 4.125 C-3.09754167 3.87756577 -5.38886493 3.07368985 -8.1875 2.125 C-4.87379 -0.08414 -3.8428979 -0.09981553 0 0 Z " fill="#103B99" transform="translate(146.1875,212.875)"/>
<path d="M0 0 C1.258125 0.12375 2.51625 0.2475 3.8125 0.375 C4.87404297 0.47941406 4.87404297 0.47941406 5.95703125 0.5859375 C8 1 8 1 11 3 C10.67 3.66 10.34 4.32 10 5 C6.64566891 4.05066101 3.30753495 3.10251165 0 2 C0 1.34 0 0.68 0 0 Z " fill="#5C75B9" transform="translate(330,267)"/>
<path d="M0 0 C0.99 0.33 1.98 0.66 3 1 C3.8125 2.875 3.8125 2.875 4 5 C3.01 6.485 3.01 6.485 2 8 C1.34 8 0.68 8 0 8 C0 5.36 0 2.72 0 0 Z " fill="#0539AA" transform="translate(311,262)"/>
<path d="M0 0 C0 1.98 0 3.96 0 6 C-1.65 5.67 -3.3 5.34 -5 5 C-5 4.01 -5 3.02 -5 2 C-1.125 0 -1.125 0 0 0 Z " fill="#0E3E96" transform="translate(121,278)"/>
<path d="M0 0 C2.31 0 4.62 0 7 0 C7 0.33 7 0.66 7 1 C5.35 1.33 3.7 1.66 2 2 C2 2.33 2 2.66 2 3 C3.65 3.33 5.3 3.66 7 4 C5.1875 5.0625 5.1875 5.0625 3 6 C2.01 5.67 1.02 5.34 0 5 C0 3.35 0 1.7 0 0 Z " fill="#7088C4" transform="translate(335,260)"/>
<path d="M0 0 C1.32 0.66 2.64 1.32 4 2 C4 2.99 4 3.98 4 5 C3.34 5 2.68 5 2 5 C0.65117592 5.63474075 -0.6846659 6.29848848 -2 7 C-1.34 4.69 -0.68 2.38 0 0 Z " fill="#4D72B8" transform="translate(157,250)"/>
<path d="M0 0 C1.32 0 2.64 0 4 0 C4 0.66 4 1.32 4 2 C4.66 2 5.32 2 6 2 C5.67 2.99 5.34 3.98 5 5 C2.525 4.01 2.525 4.01 0 3 C0 2.01 0 1.02 0 0 Z " fill="#0739A8" transform="translate(239,231)"/>
<path d="M0 0 C0.33 0.99 0.66 1.98 1 3 C1.99 3 2.98 3 4 3 C3.67 4.32 3.34 5.64 3 7 C3 6.34 3 5.68 3 5 C1.02 5 -0.96 5 -3 5 C-3 4.01 -3 3.02 -3 2 C-2.34 2.33 -1.68 2.66 -1 3 C-0.67 2.01 -0.34 1.02 0 0 Z " fill="#103995" transform="translate(290,228)"/>
<path d="M0 0 C1.32 0.99 2.64 1.98 4 3 C3.34 4.65 2.68 6.3 2 8 C0.68 7.01 -0.64 6.02 -2 5 C-1.34 3.35 -0.68 1.7 0 0 Z " fill="#2146AC" transform="translate(282,228)"/>
<path d="M0 0 C0.33 0 0.66 0 1 0 C1.75 3.1875 1.75 3.1875 2 7 C0.0625 9.9375 0.0625 9.9375 -2 12 C-2.66 11.67 -3.32 11.34 -4 11 C-3.67 10.34 -3.34 9.68 -3 9 C-2.34 9 -1.68 9 -1 9 C-0.67 6.03 -0.34 3.06 0 0 Z " fill="#8FABDF" transform="translate(151,261)"/>
<path d="M0 0 C0.33 0 0.66 0 1 0 C1 1.65 1 3.3 1 5 C-0.98 5 -2.96 5 -5 5 C-5 4.01 -5 3.02 -5 2 C-3.35 2 -1.7 2 0 2 C0 1.34 0 0.68 0 0 Z " fill="#335095" transform="translate(290,234)"/>
<path d="M0 0 C0.99 0 1.98 0 3 0 C2.979375 0.78375 2.95875 1.5675 2.9375 2.375 C2.81315937 4.98114961 2.81315937 4.98114961 4 7 C2.68 7 1.36 7 0 7 C0 4.69 0 2.38 0 0 Z " fill="#677FB6" transform="translate(328,271)"/>
<path d="M0 0 C1.32 0 2.64 0 4 0 C4 0.66 4 1.32 4 2 C6.97 2 9.94 2 13 2 C13 2.33 13 2.66 13 3 C11.20841511 3.02696365 9.41671527 3.04637917 7.625 3.0625 C6.62726563 3.07410156 5.62953125 3.08570313 4.6015625 3.09765625 C2 3 2 3 0 2 C0 1.34 0 0.68 0 0 Z " fill="#345BA2" transform="translate(211,262)"/>
<path d="M0 0 C2.97 0 5.94 0 9 0 C9 1.32 9 2.64 9 4 C7.68 3.67 6.36 3.34 5 3 C5.33 2.34 5.66 1.68 6 1 C4.02 1 2.04 1 0 1 C0 0.67 0 0.34 0 0 Z " fill="#193C8D" transform="translate(277,257)"/>
<path d="M0 0 C0.99 0.33 1.98 0.66 3 1 C3.36923077 5.55384615 3.36923077 5.55384615 1.5 7.8125 C1.005 8.204375 0.51 8.59625 0 9 C-0.87890625 2.84765625 -0.87890625 2.84765625 -1 1 C-0.67 0.67 -0.34 0.34 0 0 Z " fill="#2A53A8" transform="translate(212,235)"/>
<path d="M0 0 C-0.66 1.32 -1.32 2.64 -2 4 C-2.66 4 -3.32 4 -4 4 C-4.33 3.34 -4.66 2.68 -5 2 C-7.01669827 0.86649466 -7.01669827 0.86649466 -9 0 C-5.93109813 -1.53445094 -3.29905734 -0.54984289 0 0 Z " fill="#2B50A7" transform="translate(198,223)"/>
<path d="M0 0 C1.4606285 2.64738916 2 3.89448334 2 7 C0.35 6.67 -1.3 6.34 -3 6 C-2.01 4.02 -1.02 2.04 0 0 Z " fill="#0A389B" transform="translate(258,267)"/>
<path d="M0 0 C0.66 0 1.32 0 2 0 C2.66 2.31 3.32 4.62 4 7 C2.68 6.67 1.36 6.34 0 6 C-1.125 2.25 -1.125 2.25 0 0 Z " fill="#0D359E" transform="translate(192,263)"/>
<path d="M0 0 C0.66 0.33 1.32 0.66 2 1 C2 2.65 2 4.3 2 6 C1.01 6.495 1.01 6.495 0 7 C-0.66 6.67 -1.32 6.34 -2 6 C-2 4.68 -2 3.36 -2 2 C-1.34 2 -0.68 2 0 2 C0 1.34 0 0.68 0 0 Z " fill="#1741A9" transform="translate(257,223)"/>
<path d="M0 0 C1.65 0 3.3 0 5 0 C5 1.32 5 2.64 5 4 C3.35 3.67 1.7 3.34 0 3 C0 2.01 0 1.02 0 0 Z " fill="#0737A8" transform="translate(316,223)"/>
<path d="M0 0 C0.99 0.66 1.98 1.32 3 2 C3 2.99 3 3.98 3 5 C0.36 5 -2.28 5 -5 5 C-5 4.67 -5 4.34 -5 4 C-3.35 4 -1.7 4 0 4 C0 2.68 0 1.36 0 0 Z " fill="#788EBA" transform="translate(247,274)"/>
<path d="M0 0 C0.99 0 1.98 0 3 0 C2.67 1.65 2.34 3.3 2 5 C1.01 5 0.02 5 -1 5 C-0.67 3.35 -0.34 1.7 0 0 Z " fill="#0838A9" transform="translate(312,272)"/>
<path d="M0 0 C1.32 0 2.64 0 4 0 C4 1.32 4 2.64 4 4 C3.01 4.33 2.02 4.66 1 5 C0.34 3.68 -0.32 2.36 -1 1 C-0.67 0.67 -0.34 0.34 0 0 Z " fill="#2D54AC" transform="translate(290,259)"/>
<path d="M0 0 C1.98 0.66 3.96 1.32 6 2 C6 2.66 6 3.32 6 4 C6.66 4.33 7.32 4.66 8 5 C4 5 4 5 1.75 3.0625 C0 1 0 1 0 0 Z " fill="#7D9ACD" transform="translate(144,255)"/>
<path d="M0 0 C2.92879371 0.62759865 5.36095629 1.58622659 8 3 C5.6875 3.625 5.6875 3.625 3 4 C2.01 3.34 1.02 2.68 0 2 C0 1.34 0 0.68 0 0 Z " fill="#647EBC" transform="translate(134,238)"/>
<path d="M0 0 C2.97 1.98 2.97 1.98 6 4 C5.67 4.66 5.34 5.32 5 6 C4.34 6 3.68 6 3 6 C3 5.01 3 4.02 3 3 C2.01 3.33 1.02 3.66 0 4 C-0.66 3.34 -1.32 2.68 -2 2 C-1.34 2 -0.68 2 0 2 C0 1.34 0 0.68 0 0 Z " fill="#3A5CB2" transform="translate(242,237)"/>
<path d="M0 0 C0.66 0.33 1.32 0.66 2 1 C2.625 4.0625 2.625 4.0625 3 7 C1.68 7.33 0.36 7.66 -1 8 C-0.67 5.36 -0.34 2.72 0 0 Z " fill="#5074BB" transform="translate(224,230)"/>
<path d="M0 0 C-0.639375 0.4125 -1.27875 0.825 -1.9375 1.25 C-4.20990931 3.17810487 -4.60196439 4.11424181 -5 7 C-5.33 7 -5.66 7 -6 7 C-6 4.69 -6 2.38 -6 0 C-3 -1 -3 -1 0 0 Z " fill="#6885BF" transform="translate(138,232)"/>
<path d="M0 0 C0 0.66 0 1.32 0 2 C0.99 2.33 1.98 2.66 3 3 C1.35 3.33 -0.3 3.66 -2 4 C-2 3.01 -2 2.02 -2 1 C-3.32 0.67 -4.64 0.34 -6 0 C-3.50907189 -1.24546405 -2.58919267 -0.7767578 0 0 Z " fill="#365CA8" transform="translate(238,223)"/>
</svg>
