<?xml version="1.0" encoding="UTF-8"?>
<svg version="1.1" xmlns="http://www.w3.org/2000/svg" width="500" height="500">
<path d="M0 0 C165 0 330 0 500 0 C500 165 500 330 500 500 C335 500 170 500 0 500 C0 335 0 170 0 0 Z " fill="#1A123B" transform="translate(0,0)"/>
<path d="M0 0 C0.76194672 -0.00043808 1.52389343 -0.00087616 2.30892944 -0.00132751 C4.79802133 0.00074294 7.28641814 0.02399001 9.77539062 0.04760742 C11.51273226 0.05320961 13.25007867 0.05747676 14.98742676 0.06047058 C19.53801792 0.07187038 24.08831728 0.10129513 28.63879395 0.13458252 C33.29105686 0.16538884 37.94336739 0.1789984 42.59570312 0.1940918 C51.70780979 0.22616994 60.81970085 0.27730678 69.93164062 0.34057617 C67.01380863 5.7121363 63.99858352 10.93129553 60.61132812 16.02026367 C60.22598907 16.59970734 59.84065002 17.179151 59.44363403 17.77615356 C58.64038967 18.98202841 57.83544214 20.18677047 57.02880859 21.39038086 C55.79717064 23.22971872 54.57310558 25.07394024 53.34960938 26.91870117 C52.56229332 28.09868528 51.77454842 29.27838339 50.98632812 30.45776367 C50.27976074 31.51592285 49.57319336 32.57408203 48.84521484 33.66430664 C46.93164062 36.34057617 46.93164062 36.34057617 43.93164062 39.34057617 C43.93164062 33.07057617 43.93164062 26.80057617 43.93164062 20.34057617 C37.09919363 20.36003857 30.268027 20.41188808 23.43603516 20.49316406 C21.1141661 20.5162954 18.79219283 20.53072829 16.47021484 20.53613281 C13.12336656 20.54545751 9.77814632 20.58652813 6.43164062 20.63354492 C4.88585327 20.62764595 4.88585327 20.62764595 3.30883789 20.62162781 C-3.34597173 20.75496052 -7.96354221 21.92858782 -13.06835938 26.34057617 C-17.15507932 31.0257529 -17.64881709 35.57488582 -17.38085938 41.69604492 C-16.58930417 48.39458082 -13.81837606 52.04999231 -8.78710938 56.17651367 C-5.754961 58.23010507 -3.11106219 58.46730352 0.43910217 58.47860718 C1.36274567 58.48406052 2.28638916 58.48951385 3.23802185 58.49513245 C4.7551754 58.49669594 4.7551754 58.49669594 6.30297852 58.49829102 C7.37 58.50337173 8.43702148 58.50845245 9.53637695 58.51368713 C11.85755145 58.52439895 14.17873633 58.53301594 16.49992561 58.53980637 C20.17850768 58.55159123 23.85697213 58.57104519 27.5355072 58.59292603 C37.99620626 58.65454176 48.45689457 58.70851134 58.91772461 58.74194336 C65.31442141 58.76293794 71.71090586 58.79828482 78.107481 58.84270096 C80.5413913 58.85682836 82.97533919 58.865576 85.40928841 58.86875534 C88.82459698 58.873687 92.23934678 58.89690559 95.65454102 58.92407227 C96.6518071 58.92106613 97.64907318 58.91806 98.67655945 58.91496277 C110.28876669 59.0515077 119.69788744 62.36148786 128.13085938 70.44995117 C136.70698216 79.64431572 140.56147714 89.50741852 140.30664062 102.12182617 C138.97271049 113.57139315 132.98916776 123.46406224 124.11914062 130.65307617 C116.02501039 136.3221168 107.42692489 138.47096526 97.6628418 138.45410156 C96.95010101 138.45424759 96.23736023 138.45439362 95.50302124 138.45454407 C93.16018573 138.45385049 90.8174309 138.44608417 88.47460938 138.43823242 C86.84507796 138.43636627 85.21554598 138.4349433 83.58601379 138.4339447 C79.30675698 138.43013505 75.02753436 138.42031806 70.74829102 138.40924072 C66.37777163 138.3989932 62.0072467 138.39443993 57.63671875 138.3894043 C49.06834372 138.37869435 40.49999643 138.36163662 31.93164062 138.34057617 C33.08217923 135.30868658 34.27827235 132.56999279 36.07055664 129.8671875 C36.48761368 129.23335648 36.90467072 128.59952545 37.33436584 127.94648743 C38.00320045 126.94466682 38.00320045 126.94466682 38.68554688 125.92260742 C39.37691994 124.87492439 39.37691994 124.87492439 40.08226013 123.80607605 C41.54866322 121.58558136 43.02113834 119.3691974 44.49414062 117.15307617 C45.96951998 114.92547671 47.44363168 112.69704794 48.91673279 110.46794128 C49.83218838 109.08351827 50.74918427 107.70011232 51.66786194 106.31782532 C53.9435514 102.91431794 53.9435514 102.91431794 55.93164062 99.34057617 C56.59164062 99.34057617 57.25164062 99.34057617 57.93164062 99.34057617 C57.93164062 105.61057617 57.93164062 111.88057617 57.93164062 118.34057617 C64.47916728 118.29629486 71.02574145 118.22632441 77.57275391 118.13305664 C79.79761148 118.10491845 82.02256769 118.08366852 84.24755859 118.06958008 C87.45526365 118.04805186 90.66179166 118.00134939 93.86914062 117.94995117 C94.85591797 117.94872253 95.84269531 117.9474939 96.859375 117.94622803 C104.31774853 117.7898335 110.00014533 116.34921608 115.30664062 110.90307617 C119.12281799 104.88525802 119.86500328 99.35553338 118.93164062 92.34057617 C116.864285 86.55198041 113.72057389 83.83261997 108.31105614 81.20162964 C103.98563302 79.63636264 99.68518364 79.8055542 95.13208008 79.8581543 C94.07890091 79.85424179 93.02572174 79.85032928 91.94062805 79.84629822 C89.66429045 79.84034198 87.3879146 79.84345916 85.11159706 79.85472107 C81.49879205 79.8720474 77.8867828 79.86443807 74.27397156 79.85046387 C65.29920184 79.82087687 56.32458586 79.83396733 47.34979248 79.84564209 C39.76424817 79.85387596 32.17905241 79.84577775 24.59355736 79.81651306 C21.05232372 79.80946529 17.51171925 79.82604112 13.97053528 79.84362793 C-2.7390853 79.84229754 -15.28350024 78.80460426 -27.77539062 66.68432617 C-36.22095118 57.6187118 -38.6729483 47.37875834 -38.41210938 35.27026367 C-37.51946675 25.06573551 -32.28098269 15.76171221 -24.52148438 9.18041992 C-16.67758316 3.21082107 -9.99771658 -0.15391715 0 0 Z " fill="#FAF9FA" transform="translate(199.068359375,113.659423828125)"/>
<path d="M0 0 C3.96 0 7.92 0 12 0 C14.92952211 6.38402495 17.4572289 12.80027207 19.75 19.4375 C20.06582031 20.33404297 20.38164062 21.23058594 20.70703125 22.15429688 C23 28.74037811 23 28.74037811 23 31 C23.66 31 24.32 31 25 31 C25.13535156 30.43796875 25.27070313 29.8759375 25.41015625 29.296875 C27.9653181 19.32103353 31.53671155 9.68771921 35 0 C39.29 0 43.58 0 48 0 C48 15.18 48 30.36 48 46 C45.03 46 42.06 46 39 46 C38.67 36.43 38.34 26.86 38 17 C37.28972656 19.00964844 36.57945312 21.01929688 35.84765625 23.08984375 C35.15994577 25.02945944 34.47125674 26.96872502 33.7824707 28.90795898 C33.30325435 30.25883235 32.82506069 31.61006895 32.34790039 32.96166992 C31.66298865 34.90118634 30.97444371 36.83937881 30.28515625 38.77734375 C29.87144775 39.94515381 29.45773926 41.11296387 29.03149414 42.31616211 C28 45 28 45 27 46 C25.00041636 46.04080783 22.99954746 46.04254356 21 46 C16.85356334 36.47787333 13.40205168 26.81056764 10 17 C9.67 26.57 9.34 36.14 9 46 C6.03 46 3.06 46 0 46 C0 30.82 0 15.64 0 0 Z " fill="#F8F8F9" transform="translate(136,287)"/>
<path d="M0 0 C25.31707317 0 25.31707317 0 33 6.5625 C35.82366951 11.41568197 36.12832317 15.51730289 35 21 C32.9670497 24.7831724 30.54809585 27.19101241 26.75 29.17578125 C23.29694524 30.2107167 20.28620482 30.19226551 16.6875 30.125 C13.3771875 30.063125 13.3771875 30.063125 10 30 C10 35.28 10 40.56 10 46 C6.7 46 3.4 46 0 46 C0 30.82 0 15.64 0 0 Z " fill="#F4F3F5" transform="translate(284,287)"/>
<path d="M0 0 C2.97 0 5.94 0 9 0 C12.733938 8.73935978 16.17378593 17.56799778 19.50415039 26.46728516 C20.32490565 28.65811419 21.15157103 30.84665698 21.97851562 33.03515625 C22.50295846 34.43215871 23.02706025 35.82928927 23.55078125 37.2265625 C23.79758133 37.87855621 24.04438141 38.53054993 24.29866028 39.20230103 C26 43.77073094 26 43.77073094 26 46 C22.7 46 19.4 46 16 46 C15.01 43.36 14.02 40.72 13 38 C7.39 37.67 1.78 37.34 -4 37 C-4.33 39.31 -4.66 41.62 -5 44 C-5.33 44.66 -5.66 45.32 -6 46 C-9.3 46 -12.6 46 -16 46 C-14.73543124 39.74499788 -13.04743747 33.97044496 -10.7421875 28.02734375 C-10.43427277 27.21882462 -10.12635803 26.41030548 -9.80911255 25.57728577 C-8.83689228 23.02842078 -7.85611732 20.4829517 -6.875 17.9375 C-6.20906376 16.19618205 -5.54369392 14.45464739 -4.87890625 12.71289062 C-3.25913426 8.47272952 -1.63168856 4.23558889 0 0 Z " fill="#F5F5F7" transform="translate(208,287)"/>
<path d="M0 0 C1.23556641 0.01740234 1.23556641 0.01740234 2.49609375 0.03515625 C3.32238281 0.04417969 4.14867187 0.05320312 5 0.0625 C5.63808594 0.07410156 6.27617187 0.08570313 6.93359375 0.09765625 C9.35695444 6.48716734 11.77776813 12.87763904 14.19677734 19.26879883 C15.02072873 21.44480467 15.84527221 23.6205864 16.67041016 25.79614258 C17.85343095 28.91559657 19.03434956 32.03583914 20.21484375 35.15625 C20.586698 36.13540878 20.95855225 37.11456757 21.3416748 38.12339783 C21.68202759 39.02425613 22.02238037 39.92511444 22.37304688 40.85327148 C22.67505005 41.65047104 22.97705322 42.44767059 23.28820801 43.26902771 C23.93359375 45.09765625 23.93359375 45.09765625 23.93359375 46.09765625 C20.30359375 46.09765625 16.67359375 46.09765625 12.93359375 46.09765625 C12.27359375 43.12765625 11.61359375 40.15765625 10.93359375 37.09765625 C2.51859375 37.59265625 2.51859375 37.59265625 -6.06640625 38.09765625 C-7.05640625 40.73765625 -8.04640625 43.37765625 -9.06640625 46.09765625 C-12.36640625 46.09765625 -15.66640625 46.09765625 -19.06640625 46.09765625 C-16.61816774 37.37030244 -13.51026855 28.92920344 -10.34082031 20.44458008 C-9.43235968 18.01092157 -8.53034247 15.57493983 -7.62890625 13.13867188 C-7.05376348 11.59230725 -6.47825627 10.04607811 -5.90234375 8.5 C-5.63255707 7.77094955 -5.36277039 7.04189911 -5.08480835 6.29075623 C-2.77616338 0.13119865 -2.77616338 0.13119865 0 0 Z " fill="#F6F6F7" transform="translate(344.06640625,286.90234375)"/>
<path d="M0 0 C0.78552246 0.01047363 1.57104492 0.02094727 2.38037109 0.03173828 C3.23115234 0.03818359 4.08193359 0.04462891 4.95849609 0.05126953 C6.29267578 0.07640625 6.29267578 0.07640625 7.65380859 0.10205078 C8.99958984 0.11558594 8.99958984 0.11558594 10.37255859 0.12939453 C12.59157445 0.15300108 14.81005937 0.18592768 17.02880859 0.22705078 C15.74243757 3.70757595 14.24000187 6.64437111 12.15551758 9.71020508 C11.57829453 10.56426437 11.00107147 11.41832367 10.40635681 12.29826355 C9.78547684 13.20675552 9.16459686 14.1152475 8.52490234 15.05126953 C7.88641861 15.99388138 7.24793488 16.93649323 6.59010315 17.90766907 C4.55327616 20.91300251 2.51006087 23.91392355 0.46630859 26.91455078 C-1.5797865 29.92670415 -3.62455502 32.93974971 -5.66819763 35.9535675 C-6.93966109 37.82775821 -8.21278042 39.7008268 -9.48768616 41.57267761 C-10.06175705 42.41728043 -10.63582794 43.26188324 -11.22729492 44.13208008 C-11.73422379 44.87644821 -12.24115265 45.62081635 -12.76344299 46.38774109 C-14.01173923 48.21055815 -14.01173923 48.21055815 -14.97119141 50.22705078 C-21.57119141 50.22705078 -28.17119141 50.22705078 -34.97119141 50.22705078 C-33.46287122 47.21041041 -31.95524839 44.56315459 -30.11376953 41.765625 C-29.53977417 40.89146942 -28.96577881 40.01731384 -28.37438965 39.1166687 C-27.75664673 38.18114166 -27.13890381 37.24561462 -26.50244141 36.28173828 C-25.54827332 34.83240402 -25.54827332 34.83240402 -24.5748291 33.35379028 C-23.23099626 31.31391301 -21.88603857 29.27477639 -20.54003906 27.23632812 C-18.47589742 24.10918033 -16.41667951 20.97883105 -14.35791016 17.84814453 C-13.05221583 15.86748111 -11.74623597 13.88700589 -10.43994141 11.90673828 C-9.82219849 10.96716278 -9.20445557 10.02758728 -8.56799316 9.05953979 C-7.9939978 8.19168854 -7.42000244 7.32383728 -6.82861328 6.4296875 C-6.0715509 5.28196365 -6.0715509 5.28196365 -5.29919434 4.11105347 C-2.61358053 0.30104408 -2.61358053 0.30104408 0 0 Z " fill="#F7F7F8" transform="translate(230.97119140625,201.77294921875)"/>
<path d="M0 0 C1.21204102 0.21825439 2.42408203 0.43650879 3.67285156 0.66137695 C2.37696567 4.15701753 0.8547338 7.14535563 -1.20043945 10.25219727 C-1.77766251 11.129505 -2.35488556 12.00681274 -2.94960022 12.91070557 C-3.57048019 13.84420837 -4.19136017 14.77771118 -4.83105469 15.73950195 C-5.46953842 16.70668152 -6.10802216 17.67386108 -6.76585388 18.67034912 C-8.1128798 20.7091122 -9.46205606 22.74645593 -10.81323242 24.7824707 C-12.88942026 27.91103312 -14.95944168 31.04360238 -17.02832031 34.17700195 C-18.33721044 36.15640319 -19.64644333 38.13557782 -20.95605469 40.11450195 C-21.57895889 41.05610168 -22.2018631 41.99770142 -22.84364319 42.96783447 C-23.70474953 44.26488312 -23.70474953 44.26488312 -24.58325195 45.58813477 C-25.09018082 46.3524884 -25.59710968 47.11684204 -26.11940002 47.90435791 C-27.32714844 49.66137695 -27.32714844 49.66137695 -28.32714844 50.66137695 C-29.81586703 50.74807127 -31.30859343 50.76841189 -32.79980469 50.7590332 C-33.69892578 50.75581055 -34.59804687 50.75258789 -35.52441406 50.74926758 C-36.94270508 50.73669922 -36.94270508 50.73669922 -38.38964844 50.72387695 C-39.33904297 50.71936523 -40.2884375 50.71485352 -41.26660156 50.71020508 C-43.62017909 50.69837806 -45.97363321 50.68189721 -48.32714844 50.66137695 C-47.96395508 50.101521 -47.60076172 49.54166504 -47.2265625 48.96484375 C-44.28141449 44.38296449 -41.38811101 39.78722134 -38.61816406 35.09741211 C-36.04981106 30.74973779 -33.40960305 26.45158799 -30.734375 22.16894531 C-29.62656316 20.36736387 -28.54316951 18.55054522 -27.484375 16.71972656 C-20.15699169 4.10422707 -15.22427337 -1.90824636 0 0 Z " fill="#F7F7F8" transform="translate(211.3271484375,201.338623046875)"/>
<path d="M0 0 C1.18613892 0.00785522 1.18613892 0.00785522 2.39624023 0.01586914 C3.67724609 0.02070312 3.67724609 0.02070312 4.98413086 0.02563477 C5.88196289 0.03401367 6.77979492 0.04239258 7.70483398 0.05102539 C8.6065332 0.05553711 9.50823242 0.06004883 10.43725586 0.06469727 C12.67234712 0.07652315 14.90730835 0.09300319 17.14233398 0.11352539 C15.854586 3.59621942 14.34921592 6.54069838 12.26904297 9.61254883 C11.69181992 10.46983582 11.11459686 11.3271228 10.5198822 12.21038818 C9.89900223 13.12201721 9.27812225 14.03364624 8.63842773 14.97290039 C7.999944 15.91788391 7.36146027 16.86286743 6.70362854 17.83648682 C4.6667572 20.84850068 2.62324764 23.85594725 0.57983398 26.86352539 C-0.80013096 28.90361429 -2.17969299 30.94397578 -3.55883789 32.98461914 C-4.86772056 34.91845804 -6.17695321 36.85206011 -7.48657227 38.78540039 C-8.10947647 39.70512634 -8.73238068 40.62485229 -9.37416077 41.57244873 C-9.94823166 42.41712708 -10.52230255 43.26180542 -11.11376953 44.13208008 C-11.62069839 44.87866882 -12.12762726 45.62525757 -12.6499176 46.39447021 C-13.85766602 48.11352539 -13.85766602 48.11352539 -14.85766602 49.11352539 C-16.27336725 49.2000415 -17.69326102 49.22057443 -19.11157227 49.21118164 C-19.96557617 49.20795898 -20.81958008 49.20473633 -21.69946289 49.20141602 C-22.59729492 49.19303711 -23.49512695 49.1846582 -24.42016602 49.17602539 C-25.32186523 49.17151367 -26.22356445 49.16700195 -27.15258789 49.16235352 C-29.38767915 49.15052764 -31.62264038 49.13404759 -33.85766602 49.11352539 C-32.56991803 45.63083136 -31.06454795 42.6863524 -28.984375 39.61450195 C-28.40715195 38.75721497 -27.82992889 37.89992798 -27.23521423 37.0166626 C-26.61433426 36.10503357 -25.99345428 35.19340454 -25.35375977 34.25415039 C-24.71527603 33.30916687 -24.0767923 32.36418335 -23.41896057 31.39056396 C-21.38208923 28.3785501 -19.33857967 25.37110353 -17.29516602 22.36352539 C-15.91520107 20.32343649 -14.53563904 18.283075 -13.15649414 16.24243164 C-11.84761147 14.30859275 -10.53837883 12.37499067 -9.22875977 10.44165039 C-8.60585556 9.52192444 -7.98295135 8.60219849 -7.34117126 7.65460205 C-6.48006493 6.38758453 -6.48006493 6.38758453 -5.6015625 5.0949707 C-5.09463364 4.34838196 -4.58770477 3.60179321 -4.06541443 2.83258057 C-2.16844405 0.13251761 -2.16844405 0.13251761 0 0 Z " fill="#FBFBFC" transform="translate(318.857666015625,113.886474609375)"/>
<path d="M0 0 C1.80718506 0.33825806 1.80718506 0.33825806 3.65087891 0.68334961 C0.37188144 9.32593609 -4.91136046 17.04954423 -9.79150391 24.859375 C-11.07515559 26.94263336 -12.3317591 29.04281313 -13.56005859 31.15917969 C-23.56780565 48.35462598 -23.56780565 48.35462598 -29.99328613 50.61248779 C-35.93999162 51.51458621 -41.48623121 50.85181196 -47.34912109 49.68334961 C-42.35890197 40.56749246 -37.06843655 31.67636295 -31.47998047 22.91455078 C-30.30913813 21.05165467 -29.16343674 19.17271967 -28.04345703 17.27880859 C-20.51342884 4.58756442 -15.47948165 -2.01254548 0 0 Z " fill="#FBFBFC" transform="translate(299.34912109375,113.316650390625)"/>
<path d="M0 0 C4.4055253 2.5162797 6.78828555 5.19454361 8.48828125 10.08203125 C8.48828125 11.07203125 8.48828125 12.06203125 8.48828125 13.08203125 C5.18828125 13.08203125 1.88828125 13.08203125 -1.51171875 13.08203125 C-1.84171875 11.43203125 -2.17171875 9.78203125 -2.51171875 8.08203125 C-4.32413927 8.05515846 -6.13667108 8.0356941 -7.94921875 8.01953125 C-9.46322266 8.00212891 -9.46322266 8.00212891 -11.0078125 7.984375 C-13.45192942 7.79590449 -13.45192942 7.79590449 -14.51171875 9.08203125 C-14.55235707 10.7482024 -14.55443975 12.4159122 -14.51171875 14.08203125 C-13.39796875 14.63890625 -12.28421875 15.19578125 -11.13671875 15.76953125 C-10.41226563 16.135625 -9.6878125 16.50171875 -8.94140625 16.87890625 C-7.27123691 17.70593544 -5.58789267 18.50671548 -3.89453125 19.28515625 C1.82396883 21.96623344 5.57760732 24.26068339 8.48828125 30.08203125 C8.91050276 33.79758052 8.61848997 35.81076308 6.98828125 39.20703125 C3.29067724 43.45927586 -0.37444337 45.59401064 -5.97265625 46.46484375 C-13.2762839 46.80193426 -18.18886591 44.55287054 -23.94921875 40.26953125 C-26.06692155 37.30474734 -26.23617068 34.66415621 -26.51171875 31.08203125 C-23.46123259 30.79424954 -20.55021042 30.62868613 -17.51171875 31.08203125 C-15.51171875 33.51953125 -15.51171875 33.51953125 -14.51171875 36.08203125 C-13.45192942 37.36815801 -13.45192942 37.36815801 -11.0078125 37.1796875 C-9.99847656 37.16808594 -8.98914063 37.15648437 -7.94921875 37.14453125 C-6.93730469 37.13550781 -5.92539063 37.12648438 -4.8828125 37.1171875 C-4.10035156 37.10558594 -3.31789063 37.09398437 -2.51171875 37.08203125 C-2.51171875 34.77203125 -2.51171875 32.46203125 -2.51171875 30.08203125 C-3.60871094 29.623125 -4.70570312 29.16421875 -5.8359375 28.69140625 C-7.29054027 28.07202701 -8.74495763 27.45221223 -10.19921875 26.83203125 C-10.92044922 26.53167969 -11.64167969 26.23132813 -12.38476562 25.921875 C-17.24174813 23.83714278 -21.63957205 21.6673767 -24.82421875 17.26953125 C-26.13724555 13.09171871 -26.05669937 9.46051165 -24.44921875 5.39453125 C-18.32093222 -1.91987526 -8.8574554 -3.23717266 0 0 Z " fill="#F5F5F7" transform="translate(118.51171875,287.91796875)"/>
<path d="M0 0 C3.63 0 7.26 0 11 0 C11.84884766 1.93166016 11.84884766 1.93166016 12.71484375 3.90234375 C13.4556074 5.58078291 14.19649945 7.25916541 14.9375 8.9375 C15.31068359 9.78763672 15.68386719 10.63777344 16.06835938 11.51367188 C16.60493164 12.72700195 16.60493164 12.72700195 17.15234375 13.96484375 C17.48226318 14.7137085 17.81218262 15.46257324 18.15209961 16.23413086 C18.87116662 17.98162096 18.87116662 17.98162096 20 19 C22.97 12.73 25.94 6.46 29 0 C32.3 0 35.6 0 39 0 C37.92385138 3.89217822 36.38232683 7.25392425 34.43359375 10.765625 C27.83035788 22.76254432 24.26941021 32.23772719 25 46 C21.7 46 18.4 46 15 46 C15.07863281 45.07445312 15.15726562 44.14890625 15.23828125 43.1953125 C15.73405986 28.85054168 9.06897438 17.73283721 2.29101562 5.45751953 C1 3 1 3 0 0 Z " fill="#F4F4F6" transform="translate(371,287)"/>
<path d="M0 0 C12.54 0 25.08 0 38 0 C38 2.64 38 5.28 38 8 C33.38 8 28.76 8 24 8 C24 20.54 24 33.08 24 46 C20.7 46 17.4 46 14 46 C14 33.46 14 20.92 14 8 C9.38 8 4.76 8 0 8 C0 5.36 0 2.72 0 0 Z " fill="#F0EFF2" transform="translate(238,287)"/>
<path d="M0 0 C8.82352941 -0.35294118 8.82352941 -0.35294118 13.125 0.9375 C15.75681637 3.832498 15.51870216 6.13879823 15.46875 9.94140625 C15 12 15 12 12 14 C7.98500069 14.26874159 4.02862593 14.08663712 0 14 C0 9.38 0 4.76 0 0 Z " fill="#1D163E" transform="translate(294,295)"/>
<path d="M0 0 C2.49936244 2.49936244 3.03723753 4.64808008 4.125 8 C4.47820312 9.0725 4.83140625 10.145 5.1953125 11.25 C6 14 6 14 6 16 C2.37 16 -1.26 16 -5 16 C-3.85388265 10.26941324 -2.47605477 5.28975338 0 0 Z " fill="#2C244A" transform="translate(346,300)"/>
<path d="M0 0 C2 1 2 1 3.0703125 3.6171875 C3.59238281 5.22980469 3.59238281 5.22980469 4.125 6.875 C4.47820312 7.94492187 4.83140625 9.01484375 5.1953125 10.1171875 C6 13 6 13 6 16 C2.37 16 -1.26 16 -5 16 C-2.05357143 4.88392857 -2.05357143 4.88392857 0 0 Z " fill="#2C254A" transform="translate(212,300)"/>
<path d="M0 0 C1.99954746 -0.04254356 4.00041636 -0.04080783 6 0 C7 1 7 1 7.0625 3.5625 C7.041875 4.366875 7.02125 5.17125 7 6 C5.35 6.33 3.7 6.66 2 7 C2 7.99 2 8.98 2 10 C1.34 10 0.68 10 0 10 C0 6.7 0 3.4 0 0 Z " fill="#888499" transform="translate(189,353)"/>
<path d="M0 0 C2.31 0.33 4.62 0.66 7 1 C7 2.65 7 4.3 7 6 C5.35 6.33 3.7 6.66 2 7 C2 7.99 2 8.98 2 10 C1.34 10 0.68 10 0 10 C0 6.7 0 3.4 0 0 Z " fill="#8D899D" transform="translate(289,353)"/>
<path d="M0 0 C0.66 0 1.32 0 2 0 C2.33 0.66 2.66 1.32 3 2 C5.02463255 2.65213292 5.02463255 2.65213292 7 3 C7.042721 4.66611905 7.04063832 6.33382885 7 8 C6 9 6 9 2.9375 9.0625 C1.968125 9.041875 0.99875 9.02125 0 9 C0 6.03 0 3.06 0 0 Z " fill="#8A869A" transform="translate(248,351)"/>
<path d="M0 0 C0.66 0 1.32 0 2 0 C2 2.97 2 5.94 2 9 C0.02 9 -1.96 9 -4 9 C-4.625 6.625 -4.625 6.625 -5 4 C-4.34 3.34 -3.68 2.68 -3 2 C-2.01 2 -1.02 2 0 2 C0 1.34 0 0.68 0 0 Z " fill="#908CA0" transform="translate(237,351)"/>
<path d="M0 0 C1.65 0 3.3 0 5 0 C5.66 0.66 6.32 1.32 7 2 C6.625 4.625 6.625 4.625 6 7 C4.68 7 3.36 7 2 7 C1.34 7.99 0.68 8.98 0 10 C0 6.7 0 3.4 0 0 Z " fill="#9592A5" transform="translate(225,369)"/>
<path d="M0 0 C1.64574566 -0.02688151 3.29161413 -0.04634123 4.9375 -0.0625 C5.85402344 -0.07410156 6.77054687 -0.08570313 7.71484375 -0.09765625 C10 0 10 0 11 1 C11.04080783 2.99958364 11.04254356 5.00045254 11 7 C10.67 7 10.34 7 10 7 C10 5.35 10 3.7 10 2 C9.01 2 8.02 2 7 2 C7 3.65 7 5.3 7 7 C6.34 7 5.68 7 5 7 C5 5.35 5 3.7 5 2 C4.01 2 3.02 2 2 2 C2 3.65 2 5.3 2 7 C1.34 7 0.68 7 0 7 C0 4.69 0 2.38 0 0 Z " fill="#ACA9B8" transform="translate(319,353)"/>
<path d="M0 0 C1.2065625 0.0309375 1.2065625 0.0309375 2.4375 0.0625 C2.4375 2.3725 2.4375 4.6825 2.4375 7.0625 C0.0625 7.1875 0.0625 7.1875 -2.5625 7.0625 C-3.2225 6.4025 -3.8825 5.7425 -4.5625 5.0625 C-3.80953264 0.09291543 -3.80953264 0.09291543 0 0 Z " fill="#8C889C" transform="translate(244.5625,368.9375)"/>
<path d="M0 0 C1.45792884 -0.05399736 2.91642712 -0.09279177 4.375 -0.125 C5.18710938 -0.14820313 5.99921875 -0.17140625 6.8359375 -0.1953125 C9 0 9 0 11 2 C11.125 4.625 11.125 4.625 11 7 C10.34 7 9.68 7 9 7 C9 5.35 9 3.7 9 2 C8.01 2 7.02 2 6 2 C6 3.65 6 5.3 6 7 C5.34 7 4.68 7 4 7 C4 5.35 4 3.7 4 2 C3.01 2 2.02 2 1 2 C1 3.65 1 5.3 1 7 C0.67 7 0.34 7 0 7 C0 4.69 0 2.38 0 0 Z " fill="#B3B0BE" transform="translate(175,353)"/>
<path d="M0 0 C1.2065625 0.0309375 1.2065625 0.0309375 2.4375 0.0625 C2.4375 2.3725 2.4375 4.6825 2.4375 7.0625 C0.0625 7.1875 0.0625 7.1875 -2.5625 7.0625 C-3.2225 6.4025 -3.8825 5.7425 -4.5625 5.0625 C-3.80953264 0.09291543 -3.80953264 0.09291543 0 0 Z " fill="#8C889C" transform="translate(303.5625,352.9375)"/>
<path d="M0 0 C2.125 0.375 2.125 0.375 4 1 C5.125 4.75 5.125 4.75 4 7 C2.35 7 0.7 7 -1 7 C-1.625 4.625 -1.625 4.625 -2 2 C-1.34 1.34 -0.68 0.68 0 0 Z " fill="#868297" transform="translate(266,369)"/>
<path d="M0 0 C1.64574566 -0.02688151 3.29161413 -0.04634123 4.9375 -0.0625 C5.85402344 -0.07410156 6.77054687 -0.08570313 7.71484375 -0.09765625 C10 0 10 0 11 1 C11.04080783 2.99958364 11.04254356 5.00045254 11 7 C10.67 7 10.34 7 10 7 C10 5.35 10 3.7 10 2 C8.68 2 7.36 2 6 2 C6 3.65 6 5.3 6 7 C5.67 7 5.34 7 5 7 C5 5.35 5 3.7 5 2 C4.01 2 3.02 2 2 2 C2 3.65 2 5.3 2 7 C1.34 7 0.68 7 0 7 C0 4.69 0 2.38 0 0 Z " fill="#CBC9D3" transform="translate(281,369)"/>
<path d="M0 0 C2.125 0.375 2.125 0.375 4 1 C4 1.99 4 2.98 4 4 C2.68 4.33 1.36 4.66 0 5 C1.32 5 2.64 5 4 5 C4 5.66 4 6.32 4 7 C2.35 7 0.7 7 -1 7 C-1.625 4.625 -1.625 4.625 -2 2 C-1.34 1.34 -0.68 0.68 0 0 Z " fill="#B1AFBC" transform="translate(336,353)"/>
<path d="M0 0 C0.33 0.66 0.66 1.32 1 2 C1.99 2 2.98 2 4 2 C4.33 1.34 4.66 0.68 5 0 C5.33 0.99 5.66 1.98 6 3 C4.35 3 2.7 3 1 3 C1 3.66 1 4.32 1 5 C2.32 4.67 3.64 4.34 5 4 C5 4.66 5 5.32 5 6 C3.35 6 1.7 6 0 6 C-0.38218767 4.34385343 -0.71395102 2.67542976 -1 1 C-0.67 0.67 -0.34 0.34 0 0 Z " fill="#C3C1CC" transform="translate(223,354)"/>
<path d="M0 0 C1.98 0.495 1.98 0.495 4 1 C4 3 4 5 4 7 C2.35 7 0.7 7 -1 7 C-0.67 6.34 -0.34 5.68 0 5 C0.66 5.33 1.32 5.66 2 6 C2 5.34 2 4.68 2 4 C1.01 3.67 0.02 3.34 -1 3 C-0.67 2.01 -0.34 1.02 0 0 Z " fill="#B3B0BE" transform="translate(276,353)"/>
<path d="M0 0 C0.99 0.33 1.98 0.66 3 1 C2.67 3.64 2.34 6.28 2 9 C1.34 9 0.68 9 0 9 C0 6.03 0 3.06 0 0 Z " fill="#A4A1B2" transform="translate(211,351)"/>
<path d="M0 0 C0.66 0.33 1.32 0.66 2 1 C1.67 3.64 1.34 6.28 1 9 C0.34 9 -0.32 9 -1 9 C-1.09765625 2.84765625 -1.09765625 2.84765625 -1 1 C-0.67 0.67 -0.34 0.34 0 0 Z " fill="#ADAAB9" transform="translate(259,367)"/>
<path d="M0 0 C1.32 0 2.64 0 4 0 C4 0.66 4 1.32 4 2 C3.34 2 2.68 2 2 2 C2 3.65 2 5.3 2 7 C1.34 7 0.68 7 0 7 C0 4.69 0 2.38 0 0 Z " fill="#9F9CAD" transform="translate(274,369)"/>
<path d="M0 0 C1.32 0.33 2.64 0.66 4 1 C3.01 1.495 3.01 1.495 2 2 C2 3.65 2 5.3 2 7 C1.34 7 0.68 7 0 7 C0 4.69 0 2.38 0 0 Z " fill="#9F9CAD" transform="translate(281,369)"/>
<path d="M0 0 C0.66 0.66 1.32 1.32 2 2 C1.625 4.625 1.625 4.625 1 7 C1.66 7.33 2.32 7.66 3 8 C1.68 7.67 0.36 7.34 -1 7 C-1.04254356 5.00045254 -1.04080783 2.99958364 -1 1 C-0.67 0.67 -0.34 0.34 0 0 Z " fill="#B6B4C0" transform="translate(252,368)"/>
<path d="M0 0 C0.99 0.33 1.98 0.66 3 1 C3 3.31 3 5.62 3 8 C2.01 7.67 1.02 7.34 0 7 C0 4.69 0 2.38 0 0 Z " fill="#B7B4C1" transform="translate(354,352)"/>
</svg>
